<svg xmlns="http://www.w3.org/2000/svg" viewBox="0 0 65.652 49.675"><defs><style>.a{fill:#4195ea;}.a,.b,.c{fill-rule:evenodd;}.b{fill:#ff2429;}.c{fill:#ffc400;}.d{fill:#3e3e3e;}</style></defs><g transform="translate(-64 -82.5)"><g transform="translate(64 82.5)"><path class="a" d="M958.484,46.05a3.389,3.389,0,0,1,.094,6.483,2.377,2.377,0,1,1-2.818-.352,3.38,3.38,0,0,1-.492-5.38,4.766,4.766,0,0,1-3.441-7.3,6.58,6.58,0,1,1,2.756-2.039,4.773,4.773,0,0,1,3.9,8.584Zm-5.874,11.642a.846.846,0,0,1,.556.211,1.439,1.439,0,1,1,.251.375.852.852,0,1,1-.807-.585Z" transform="translate(-919.984 -26.797)"/><path class="b" d="M986.517,104.429a6.568,6.568,0,0,1-11.821-.47,4.772,4.772,0,0,1-9.409-.6,3.377,3.377,0,0,1-5.747-2.978,2.375,2.375,0,1,1,1.621-2.314,3.368,3.368,0,0,1,4.971,2.105,4.767,4.767,0,0,1,8.062.391,6.573,6.573,0,1,1,12.324,3.865Zm-29.945-8.666a1.419,1.419,0,0,1,.312-2.629.841.841,0,0,1-.257-.085.863.863,0,1,1,.708.04,1.422,1.422,0,1,1-.762,2.673Z" transform="translate(-926.294 -58.235)"/><path class="c" d="M928.25,83.405a.845.845,0,0,1-1.024-1.165,1.41,1.41,0,0,1-.531.308,1.438,1.438,0,1,1,.8-.638.84.84,0,0,1,.25-.137.854.854,0,0,1,.507,1.631ZM923.3,82.011a2.362,2.362,0,0,1-2.323-.545,3.373,3.373,0,0,1-4.986,2.07,4.767,4.767,0,0,1-5.947,5.45,6.581,6.581,0,1,1-2.765-2.027,4.772,4.772,0,0,1,7.052-6.26,3.379,3.379,0,0,1,6.151-2.024,2.371,2.371,0,1,1,2.819,3.336Z" transform="translate(-898.325 -51.331)"/></g></g></svg>