<svg xmlns="http://www.w3.org/2000/svg" viewBox="0 0 873.621 455.397"><defs><style>.a,.b{fill:#fff;stroke:#e1dfdf;}.a{fill-rule:evenodd;}</style></defs><g transform="translate(0.539 0.655)"><path class="a" d="M631.557,82.648,630.9,84.62l1.753,1.205,2.081-1.205-.767-2.52Z" transform="translate(59.689 7.072)"/><path class="a" d="M474.4,132.786l3.286,2.52,1.534-2.3.438-1.972-1.753-1.205-2.191-.329Z" transform="translate(44.747 11.597)"/><path class="a" d="M468.5,139.777l1.1,1.424,3.615-2.3-.767-2.191-2.3-.11-1.315,1.972Z" transform="translate(44.183 12.275)"/><path class="a" d="M542.7,108.4l5.477.767.219,2.739-2.081.548-2.52-1.534Z" transform="translate(51.268 9.583)"/><path class="a" d="M556,100.124l.876,4.491h2.3l.548-3.944-2.3-1.972Z" transform="translate(52.538 8.657)"/><path class="a" d="M560.6,103.753V108.9l5.587-1.205,5.368-2.848-1.862-4.053-3.506-.438-2.629-.657-1.862,2.958Z" transform="translate(52.977 8.752)"/><path class="a" d="M562.2,78.263l1.753,3.615,10.736.219,3.177-5.806L575.784,71.8l-2.3,2.52-4.382-.329-1.2,2.081h-2.41l-.329,2.41Z" transform="translate(53.13 6.088)"/><path class="a" d="M558.467,61.3l-.767,2.629,2.191.438.877-2.3Z" transform="translate(52.7 5.086)"/><path class="a" d="M554.484,82.915,557,86.749l4.711.986.11-5.477-1.534-2.629L554.7,79.3l-2.848,2.081-4.491-.767-.329,2.958,2.629,2.848-1.424,1.643-4.272-3.506-5.039.548-.329,4.053.438,4.163,2.3,2.958.876,3.177,4.711,1.315,4.272-.329-.329-4.6,3.177.438,2.41-4.053,2.848.657,1.972-2.191L559.3,88.831l-4.163-1.205-3.4-4.053Z" transform="translate(50.876 6.805)"/><path class="a" d="M533.8,91.8l.657,3.286,2.958,3.286,1.753-.657-2.191-3.944Z" transform="translate(50.418 7.998)"/><path class="a" d="M665.344,85.3l-1.424,2.848-7.887,4.382-5.7-5.477-5.7-.548-8.216,5.368-5.477,6.792-2.081,7.011-3.725,1.205-4.491-2.3-4.492.438-2.3,2.958-1.972-1.753-1.862,2.081-2.3-2.191,3.286-3.286-7.668-.548-4.492,3.834,2.41,8.326-4.382,4.272v-6.463H593.81l-2.958,2.739-.657-3.286,4.382-4.053-4.711.329L575.844,115.1l2.739,3.286-4.053,3.944,1.643,2.848,2.848-1.424.219,4.053,3.506,4.053-5.368,1.315-1.534,2.081,1.424,3.506-4.272.657-5.7-1.643-1.753,6.354-9.75-1.643v14.241L549,155.63l-10.626-9.64,3.834-2.739-6.354-9.531-4.163-1.972-6.354,2.081-7.011-2.739-.986,10.955-12.708,5.368-4.82-3.286.657-2.52-13.036-.219-3.4,4.6-.876,3.067-.876-4.491-2.41-2.081-2.848,2.958-3.944,1.972-.219,2.739,1.862,2.41v.11h0l.876,4.491,6.135,8.654h0v5.806l3.177,3.725.11.219-.219.11-7.121,5.7-.329,3.286-.11.11h0l-1.643,2.52-1.315,6.135v.219h-.219l-3.506-.438-5.7,4.6h0l-1.972.986,4.491,6.9h.109v.11l1.534,19.171v.11l-.11.11-3.944,4.382,2.629,1.972.109.11v.11l-1.1,5.149,2.3,2.52h.11v3.725l2.629,1.862.219.11-.11.219-1.315,3.506h0l-4.053,4.93-.438,3.615h6.792l2.958,2.3,3.067-2.081.219-.11.11.219,1.753,2.191.219.11h0l2.191,3.506.219.219-.219.11-2.629,1.643v3.067l2.848.219,2.41-1.643.219-.219.109.329,2.958,5.587.11.11v.11l-.219,6.682,3.725,2.191.219.11-.11.11-1.643,7.121,2.081,4.711,4.82,1.424.329.11-.11.219-3.725,8.654-.767,10.626,3.725,3.944,4.053-3.067h.11l6.025-.219,2.191-3.834.11-.329.219.219,3.286,3.286,4.272-4.93,6.573-14.241.11-.11.109-.11,4.382-.657h.219l8.654,3.4.11.11v.109l1.862,5.587,5.149-2.3.109-.11.11.11,3.286,2.191v.11h.11l5.806,13.146,7.449,14.022,4.82-3.067v-.11h0l4.93-1.972h.109l.219.11,3.725,3.067,2.081-1.862.11-.11.219.11,2.958,2.848,2.848-2.848v-.11h.219l6.792.329h.219l4.272,3.4L604,327.948h.11l.109.109,2.848,2.3,11.722-5.368h.109l3.4.767,3.615-1.424-.438-2.739v-.219h.11l9.092-4.711-2.3-6.354v-.219l.11-.11,2.958-3.286-1.205-3.067-5.806-3.834-.219-.11.11-.219,3.067-5.806-5.587-3.944-.329-.219.219-.219,2.629-3.067V273.065h.219l11.064-4.272.438-4.93v-.329h.219l6.573-.438,1.534-4.053-.219-4.163v-.219l.11-.11,3.177-1.424-2.41-8.435-4.382-3.177-.11-.11v-.11l2.958-10.3-4.053-10.736-.11-.11.11-.11,2.3-2.958.11-.11h.109l7.887,2.739,4.93-1.1,1.753-3.067.11-.11h.109l5.916-.876.986-3.834-9.75-20.376h-.11v-.11l1.1-5.039h0l.11-.11,6.573-4.6-2.52-4.82-.109-.219.109-.11,6.463-6.025h.109l5.7-.657,3.286-3.615.548-6.354-3.725-3.286v-.11l-.11-.11-.11-4.053-2.41-3.505-.109-.219.219-.11,2.739-2.629-2.958-3.615-.219-.219.219-.11,7.34-6.792v-.11h.109l3.286-1.315,2.41-3.615-4.6-9.64h-5.916l-4.6-2.081h-.11v-.11l-2.41-6.135v-.219l.11-.11,9.2-10.845V94.392Z" transform="translate(43.649 7.377)"/><path class="a" d="M660.9,21.021l6.135,7.34,1.424-1.315,1.643-8.435,2.081-3.944-2.3-3.067-5.587.438-3.4,5.039Z" transform="translate(62.553 0.341)"/><path class="a" d="M757.328,95.678,755.9,80.122l-4.272-2.41L761.82,70.7,760.4,65.99l-18.952-1.534-2.191,2.958-5.149.438-.657,4.053-4.163-.329V65.99l4.82-1.534,1.862-3.834-1.1-10.188-1.862-.767-2.191,1.424-.219-3.725-4.382,1.753-3.068-3.4,1.205-5.587,3.725,3.286,2.081-1.753,3.177,3.506,1.862-4.382-.438-5.149,3.4-2.848,6.025.657,10.078-7.668-2.52-2.848,5.039.767-.109-4.93-5.477,1.1-1.534-3.506-7.34-1.424,2.848-3.506L741.444,8.7l3.506-2.41L740.677.7l-12.16,7.121-.767,5.806-3.286,4.382,8.216,3.286-4.491,1.972-13.146-3.615L699.707,29.84l-22.9,12.379L670.676,52.3l.657,2.958-4.163,1.205-5.916,5.258,4.163,5.149,3.725-1.1,5.587,3.067-.548,5.587-5.149.548-3.505,2.081-7.23-4.6v9.312l-7.449,5.587L648,92.83l12.269,9.312.11.11v5.806h0L651.067,118.9l2.3,5.916,4.492,1.972h6.025l.11.11,2.3,4.93,3.834.548h.109l.109.11,2.41,4.382,5.258-2.52h.11l4.82,1.534,3.725-3.286h.11l5.7-.438,4.272-4.382-.767-4.272-.109-.219.219-.11,4.272-1.315,1.205-4.053v-.219h.219l3.615-.329,1.1-3.4.109-.219h.109l6.682-1.534,1.753-3.177v-.11h.219l9.859-.548h.219l.11.11,2.3,6.354,6.9-2.081h.109l7.559.219,6.135-17.637.109-.219.219.11,3.725,1.972Z" transform="translate(61.322 -0.7)"/><path class="a" d="M790.5,159.262l2.3,2.191,4.272-3.615-1.862-.438Z" transform="translate(74.927 14.261)"/><path class="a" d="M773.5,244.934l.329,1.643,2.191,1.315.986-2.629-1.1-1.862Z" transform="translate(73.304 22.472)"/><path class="a" d="M779.729,241.876l-.329,1.643,2.41.876,1.205-1.424-2.3-1.972Z" transform="translate(73.867 22.243)"/><path class="a" d="M778.448,245l-.548,6.573,2.52,3.4,2.41-1.1-.548-6.573-1.862-1.753Z" transform="translate(73.724 22.625)"/><path class="a" d="M781.838,258.4l-.438,2.41,1.2,2.41,2.958-1.315.438-1.643Z" transform="translate(74.058 23.904)"/><path class="a" d="M785.4,276l-1.1,2.191,1.753,2.52,2.081-1.972-1.315-2.52Z" transform="translate(74.335 25.585)"/><path class="a" d="M785.5,287.391l1.205,1.972,1.534-.657.438-2.958L786.6,285.2Z" transform="translate(74.45 26.463)"/><path class="a" d="M786.943,291.7l-1.643,1.862,1.315,3.615,3.944-1.1-1.315-3.725Z" transform="translate(74.431 27.084)"/><path class="a" d="M784.572,305.4l-1.972,1.972.11,4.163v4.382l.109,2.081H784.9l1.753-5.039-.329-4.82Z" transform="translate(74.173 28.392)"/><path class="a" d="M779.224,320.3l2.081.11.657,2.739-1.424,2.41-2.081,2.848-.11,3.067-.657,3.944-.329,2.958-.986-.438-.767-5.149-.109-6.354,2.519-2.739,1.424-1.205Z" transform="translate(73.495 29.815)"/><path class="a" d="M772.243,352.36l.986-.438.438-7.449,1.2-1.424.329-1.972-1.424-.876-2.082.986-1.1.986.986,3.177-.329,4.272Z" transform="translate(73.027 31.715)"/><path class="a" d="M779.2,344.758l.657,1.643,2.081-.767-.438-2.191-1.1-1.643-1.2,1.1Z" transform="translate(73.848 31.867)"/><path class="a" d="M742.543,145.5l-1.643,5.039,6.354,7.121.876-10.188-3.505-1.643Z" transform="translate(70.191 13.125)"/><path class="a" d="M780.6,162.686l1.643,2.52,6.354,1.1,2.52-1.424-1.534-2.629-4.711-.548Z" transform="translate(73.982 14.672)"/><path class="a" d="M678.656,223.252l3.834-2.52,2.629-2.081,3.506-.876-1.1-7.34,6.244-1.972,4.93-4.272,4.382-.11-3.286,4.711,3.177,2.629,4.6-5.149,1.1-8.107,4.163-1.534,3.286-4.272-3.4-2.629-3.067,3.725-3.177-2.958-.767-14.789-2.739-8.654.876-6.463,5.258-7.559,2.958-.219,1.424-4.272,6.135,8.435,4.382-.657.219-3.177-.986-6.463-1.1-4.491-4.053-2.3-.109-.11-.11-.11-.767-4.163-2.629-2.41-4.272.329h-.219l-.11-.11-2.52-6.682-3.725-.767-.11-.11h0l-5.915-8.654-4.163,4.382-.11.11h-.109l-5.587.329-3.725,3.4-.109.11-.219-.11-4.82-1.534-5.258,2.52-.329.11-.11-.219-2.52-4.491-3.286-.438,2.081,4.491.109.11-.109.219-2.52,3.725-.11.11h0l-3.4,1.424-7.121,6.573,2.958,3.506.219.219-.219.219-2.848,2.629,2.3,3.4h0v.11l.219,4.053,3.725,3.286.109.11v.11L662,162.124v.219l-3.4,3.725-.109.11h-.11l-5.7.657-6.135,5.7,2.52,4.82.11.219-.219.11-6.682,4.711-.986,4.82,9.75,20.157,4.492-3.067h.219l10.078,3.4h.219v.219l1.1,5.587v.219l-2.41,4.382,1.753,3.615,4.053-2.958.109-.11h5.368l.109.219Z" transform="translate(60.682 10.414)"/><path class="a" d="M683.636,375.25l-.548,16.761,3.067,5.149-11.722.986-3.834,8.435,10.845,11.174.219,4.053,6.025-5.7,10.3.11,7.449-5.916,4.492-8.873,2.081-24.32,3.067-12.708-2.081-14.9-2.958-.876h-.109v-.219l-.767-3.506-4.82-3.506-5.477,4.053,3.177,3.505,5.258.438.219.11v.219l-1.2,8.107v.219h-.219l-3.725.11.548,5.149v.11l-.11.11-5.258,3.505-.109.11h0l-8.654.548-2.191,2.848,1.643,3.4.219.329h-.329Z" transform="translate(63.479 31.829)"/><path class="a" d="M684.511,371.052l3.834,6.244-1.534,4.6,2.41,6.573,3.944-.876-1.534-3.177-.11-.11.11-.219,2.3-3.067.109-.11h.109l8.764-.548,5.039-3.4-.548-5.258v-.329h.219l3.834-.11,1.1-7.559-5.039-.438h-.109l-.11-.109-3.505-3.725-.219-.219L703.9,359l5.806-4.382.219-.11.109.11,5.149,3.615.109.109v.11l.657,3.506,2.629.767,1.315-16.87-1.862-5.368-8.326-16.87-2.629-3.286-2.52-11.831-1.643-3.944-.548-.657-6.244-2.52-2.081-2.629,1.862-3.725-4.6-1.862-9.64-1.643-7.34,3.834-2.629,11.283-3.177-4.053-3.505,4.6-3.067-8.654-6.244,3.834-5.258-.876.219-5.039,6.9-17.089,1.753-17.2,1.972-8.326-1.753-6.792,2.3-6.135-.986-6.682,14.46-14.132,4.6.876.329-1.753-1.205-1.972,1.972-1.315-2.52-4.382h-4.93l-4.163,3.177-.219.11-.219-.219-1.972-4.053-.11-.11.11-.219,2.41-4.382-1.1-5.368-9.859-3.286-4.492,3.067-1.1,3.944v.11l-.219.11-5.915.876-1.753,2.958-.109.11h-.109l-5.149,1.205h-.11l-7.668-2.629-2.081,2.629,3.944,10.626.11.11-.11.11L630.833,230.5l4.382,3.067.11.11h0l2.41,8.873.109.219h-.219l-3.177,1.534.219,4.053v.11h0l-1.643,4.272v.219H632.8l-6.463.438-.438,4.93v.219h-.219l-11.064,4.272v12.927l-.11.11L612.1,278.7l5.587,3.944.11.11-.11.219-2.958,5.806,5.587,3.725h.11v.109l1.424,3.4v.11l-.11.219-3.067,3.177,2.191,6.135,8.983-4.6.219-.11.109.11,2.958,3.286.11.11-.11.109-4.382,9.531.548,4.6v.219l-.219.11-3.286,1.862.219,3.725h7.559l.11.219,3.286,5.039,3.725-.329,6.025-5.477.986-4.163v-.219h4.82l1.315-2.739.109-.219h.219l3.177.548h.219v.219l2.958,9.092.11.11-.11.11-1.972,1.972-.109.11h-.11l-7.23,1.205,1.753,3.834.11.219-.11.109-2.958,3.067-.657,4.163v.11h-.109l-4.272,5.039,1.862,2.3.109.11-.109.219-2.958,3.834V357.8l7.778,3.834h.11v.109l6.244,8.654,3.834-3.725.109-.11h.11l8.326.11.109.109h.109l3.615,2.958,11.174-3.725.438-.109-.11.438Z" transform="translate(57.894 18.061)"/><path class="a" d="M649.3,364.06l4.272,6.792,4.6,3.944,9.64-4.711,1.315-4.053,7.34-8.107,3.944-1.862,1.1-4.163-10.845,3.615-.109.11-.109-.11-3.834-3.067-8.107-.11-4.053,3.834Z" transform="translate(61.446 32.832)"/><path class="a" d="M580.649,344.316l9.64-5.039,7.449,2.629,9.092-1.424,13.146,12.927,16.213,16.87,6.463-2.52,4.053,1.862,2.848-1.424,5.368,1.643,2.958-.329,5.149-7.887-6.244-8.654-7.778-3.944h-.219v-5.258h.11l2.848-3.834-1.862-2.3-.11-.11.11-.219,4.382-5.039.767-4.163v-.11h0l2.848-3.067-1.862-4.053-.109-.329.329-.11,7.559-1.205,1.753-1.753-2.848-8.764-2.848-.438-1.424,2.739v.11h-4.711l-.876,4.053h0l-.109.11-6.135,5.7h-.219l-3.944.329h-.11l-.109-.219-3.4-5.039H631.15v-.219l-.329-4.163v-.219h.219l3.286-1.972-.548-4.491v-.11h.11l4.272-9.421-2.629-2.958-18.185,9.421.438,2.739.109.219-.219.11-3.944,1.424-.11.109h0l-3.4-.767-11.722,5.368-.219.11-.11-.11-2.848-2.41-8.435,3.177h-.329l-4.272-3.4-6.792-.329-2.848,2.958-.109.11-.219-.11-3.067-2.848-1.972,1.862-.219.11-.219-.11-3.725-3.177-4.82,1.972-4.6,2.958,5.806,3.944.219.11-.11.329-1.753,2.41,2.739,2.629,4.82-2.629.219-.219.219.329,2.3,4.053,3.725-.876h.329v.219l.548,7.449,3.834,2.081.219.219-.109.219-2.191,3.067Z" transform="translate(52.318 27.16)"/><path class="a" d="M696.06,297.807l-.219-.548,8.435,4.6,2.739,7.23,4.163,5.258,5.039,8,3.506,5.806,4.163,3.177,1.315,3.725,1.1,3.286,5.149,2.41.767,5.149,5.258,6.792.438-5.916-.657-4.382,4.053-.329,1.643-.657,3.834,1.972-3.177-6.573h-4.491l-4.93-2.191-5.587-3.944-3.505-9.2-2.081-5.806,4.382-2.52,8-.438-18.075-12.05-12.708-11.5L698.689,278.2l-8-5.587-3.725-4.711-2.52,1.1-.548,2.739,4.711,3.286,2.519,3.834-1.424,1.862-2.3-.548-.657,3.286,4.6,3.4,4.491,10.407-.329-.109Z" transform="translate(64.749 24.811)"/><path class="a" d="M70.6,239.228l1.205,2.191-.219,5.258,3.615,1.972h0L77.83,250.4l2.52-1.753h.11l3.725.219,3.834-2.41.438-2.958v-.219h.329l4.272.548,2.3-.657.219-.11.11.219,1.753,3.4,3.834,1.424.876-.767.219-4.272-2.52-1.862-.11-.11v-.11l-.11-2.739-1.643-1.534-2.41-1.753-.11-.11v-.11l.329-4.272-4.82-3.725h-.11v-.11l-.438-2.848-1.753-.876-.219-.11v-1.862l-.657-1.315L85.06,219.4l-.548,1.205v.11H84.4l-1.205.219h-.11l-.11-.11-.767-.986h-1.1l-1.862,1.643v3.177h0l-1.1,1.534.986.657h.11v1.643l.11.329h-.329l-1.972-.11-.767,1.315.548,2.739v.11l-.11.11Z" transform="translate(6.193 20.181)"/><path class="a" d="M62.367,211.1l-2.081,2.52-.986,1.643.438,2.081,2.081.986-.219,3.286,5.368,3.506.219,6.244,4.272,8.107,5.916-6.025-.548-2.629v-.11h0l.876-1.643.11-.11h.219l1.753.11v-1.1L78.8,227.2l-.219-.11.11-.219,1.205-1.643v-2.958l-3.944-4.053-3.944-.767h0l-.11-.11-2.739-1.862h-.11v-.11l-.767-2.3-1.315-.219-1.424.767-.219.11-.11-.219Z" transform="translate(5.114 19.388)"/><path class="a" d="M65.968,198.4l-2.41.986-1.1,2.3-1.753.438-.11,2.848,2.41,1.424-.548,5.368,2.848,2.52,1.315-.767.11-.11.11.11,1.643.219h.11l.11.219.657,2.41,2.629,1.753,3.944.876h.219l3.834,4.053,1.753-1.643H83.5l.767.986.767-.219.438-.986-1.753-2.41h0v-.11l-.219-2.3-1.862-.657h-.11v-.11l-.548-1.205h0v-2.081l-.876-1.1-.11-.11v-4.272l-6.244-8.107Z" transform="translate(5.238 18.176)"/><path class="a" d="M75.042,181.544l-3.944-.329-2.848-2.739.219-2.629L65.84,175.3,64.2,179.134l-5.7,4.93.438,3.067,2.958-.11,2.3,1.862.876,4.053,2.629-.329,2.958.548v2.081l-3.725,4.82,7.011.329,8.873-6.463-.657-1.1-.11-.11v-1.643h.11l1.1-1.1h0l1.534-.876-.219-1.205-1.753-.11-.986.657-.11.11h-.219l-1.534-.986h-.11v-.11l-.986-1.862h0v-.11l-.11-1.643v-.219l.986-1.534-4.272-.329h-.11Z" transform="translate(5.038 15.97)"/><path class="a" d="M85.931,158.948l-.657,1.1-4.711,2.739-2.41,3.834-2.52,5.258-.329,4.382.767,2.52-1.862,2.3-.11,1.753v.11l4.491.219,1.862-.767h3.725l1.862-1.753.11-.11h.11l2.629.219h.219v.11l1.1,3.834.986-.548.11-.11.11.11,1.972.219h.11v.11l.986,1.424,5.149-.548,2.958-1.972,3.4-4.82.219-1.205-2.41-2.848h0v-.11l-.329-2.52-5.806-1.1h-.11L94.8,168.7h-.11l-3.615-6.9h0l-1.205-2.848-1.1-.548-2.191.548h-.657Z" transform="translate(6.527 14.357)"/><path class="a" d="M73.1,199.063l6.135,8.107.11.11v4.272l.876,1.1v.11h0v2.081l.548.986,1.862.657,2.848.11.986-1.643h0l5.477-4.491.548-4.491-2.3-2.081-.11-.11h0l-1.205-2.629v-.11h0l.11-4.6-7.23-3.834Z" transform="translate(6.432 17.622)"/><path class="a" d="M91.312,209.4l-5.258,4.272-.986,1.753-.11.11h-.11L82,215.425l.219,2.081,1.643,2.3,2.958.219h.219v.11l.876,1.534h0v1.753l1.862.876.11.11v.11l.438,2.848,4.711,3.615,2.3-.986.548-1.424-.329-2.3-.657-1.424-.11-.11.11-.11.986-1.753h0l.11-.11,3.944-1.862,2.41-2.081.11-2.629-.548-1.753-2.191-1.643v-.11h0l-.767-1.862-1.972-.219L95.8,212.029h-.11l-2.3-.219h-.11v-.11Z" transform="translate(7.281 19.226)"/><path class="a" d="M103.769,217.7v.548l-.11.11-2.41,2.191h-.11v.11L97.2,222.411l-.876,1.534.548,1.315v.11h.11l.329,2.41v.109h0l-.657,1.643h-.11l-.11.11-2.3,1.1-.329,4.053,2.3,1.643h.11l1.643,1.643h0l.11.11.11,2.739,2.41,1.862,3.506-.657L111,238.514l.876-1.205.11-5.806h0v-.109l.657-3.944v-.11h.11l3.067-3.615-2.52-2.739-1.424.876h-.11l-1.205.438h-.219L108.37,221.1h0l-.11-.11-1.753-3.177Z" transform="translate(8.408 20.019)"/><path class="a" d="M88.11,196.329l-.11,4.6,1.1,2.41,2.41,2.3.11.11v.11l-.548,4.6,1.972,2.41,2.081.11,3.067-1.424h.219l1.972.219.219-1.2v-.11h0l1.424-1.972h0l2.848-3.067V203.34h.11l1.753-1.753-.438-3.506-1.972-1.315h-.11v-.11l-.986-1.862-4.272.219-1.1,1.315-.11.11-.219-.11-3.834-2.3-.986-.329Z" transform="translate(7.854 17.727)"/><path class="a" d="M104.191,204.843l-2.848,3.067-1.424,1.862-.219,1.315.767,1.862,2.081,1.753h.11v.11l.548,1.862h.11v.11l-.11,1.753,2.958.219h.11l.11.11,1.753,3.177,1.753,1.1,1.205-.329,1.534-1.1.219-.11.219.219,2.739,2.958,1.753.657H119.2l5.477-4.93h.11l2.848-2.081-.657-1.862h0l-1.1-2.958-5.7-9.531-3.4-.11-1.205,1.1-.11.11-.219-.11-1.315-.876h0l-1.315-.986-.657.548h-.11v.11l-2.41.548h-.219l-1.315-.657-.876.876-.11.11h-.11Z" transform="translate(8.971 18.634)"/><path class="a" d="M104.339,195.642l.767-.986,1.315-1.862v-4.382l-2.081-1.205h0l-1.643-2.52h0v-.11l-.438-2.52-2.739,1.862h-.11l-5.368.548h-.11l-.11-.11-.986-1.424-1.753-.329-1.205.767-.329.11-.11-.329-1.1-3.944-2.3-.11-1.972,1.862H80.239l-1.753.767-.986,1.753.11,1.643.876,1.753,1.315.767.986-.767h.11l2.081.11H83.2l.11.219.219,1.534v.219l-.11.11-1.643.986-.986.876v1.315l.767,1.205,7.34,3.834,4.6-2.739h.219l1.205.438h.11l3.615,2.191.986-1.205v-.11h.11Z" transform="translate(6.852 16.333)"/><path class="a" d="M100.6,182.1l.438,2.739,1.424,2.41,2.191,1.1.11.11v4.93h0l-1.424,1.972h0l-.767.986.876,1.862,2.081,1.315h.11v.11l.438,3.834v.11l-.11.11-1.753,1.643v1.643l2.41-.11.986-.876.11-.11h.219l1.424.657,2.191-.548.767-.657.219-.11.11.11,1.534,1.1h0l1.205.767,1.1-.986v-.11h.11l3.615.11,1.315-1.972.876-2.629-.876-.767h0l-1.534-1.972-.11-.11h0l-1.205-3.944-.11-.11h.11l.876-2.848h0l2.958-3.4h0l1.862-1.753.329-1.972-2.3-2.739h-5.587l-6.135-3.944h-.11v-.219l.219-2.3-.767-.329-.657.657h-.11l-5.149.767-.11.438v.11h0Z" transform="translate(9.057 15.961)"/><path class="a" d="M122.758,186.4l-1.424,1.315L118.376,191l-.876,2.629,1.315,3.834,1.534,1.972.876.876.219.11-.11.219-.986,2.739h0l-1.315,2.081,5.477,9.2,3.834-2.3h.11l4.82-.219,5.368-3.177-1.205-3.067-5.149-6.682-2.629-1.205h0l-2.081-2.191-.11-.11.11-.219,1.534-1.972.548-2.41-1.205-1.205-2.629,2.191-.219.11-.11-.11-2.52-2.629v-.219Z" transform="translate(10.671 17.03)"/><path class="a" d="M128.843,190.248l.438.329.11.11-.11.11-.657,2.629v.11h0l-1.424,1.753,1.862,1.972,2.52,1.205h.11l5.368,6.792h0v.11l1.1,3.067,1.753-.329,1.205-1.753.11-.11h.11l3.177-.219h.219l1.205,1.2,2.081-1.1.548-7.011-3.177-1.753h-.11v-.219l-.11-2.848-1.534-1.315-2.3.767-.11.11-.11-.11-7.668-4.053Z" transform="translate(11.597 17.345)"/><path class="a" d="M135.9,191.3l4.6,2.41,2.3-.767h.11l.219.11,1.643,1.424v.219l.219,2.848,3.177,1.753h.11v.219l-.548,7.011h9.421l1.205-.767h.11l3.177.11h.11l.11.11.876,2.41,2.52,1.1v.11h0l2.191,2.191,3.506-3.615h.219l8.435.11.219-5.368v-.11h0l1.643-1.862-1.862-1.862-4.491,1.2h-.11v-.11l-6.792-3.944h-.11v-.11l-4.163-7.449-6.135-3.725-9.421-.548-3.177,2.3h-.11l-3.725.219-1.1,1.643v.11h0Z" transform="translate(12.428 16.839)"/><path class="a" d="M126.246,186.679l4.053-1.862-.548-1.862h-.11v-.11l1.315-6.9v-.219h.219l3.506.329,4.491-4.382-.657-5.039h-4.272v.219l-.438-.329-4.711-4.272-2.958.219h0l-.11-.11-3.4-2.739h-.11v-.11l-.657-2.52-2.52-1.862-.876.767-.438,2.3-.11.219H117.7l-6.244-.548h-.219l-2.081-1.862-6.135-1.643h-.11l-3.177-2.41h-.11L97.983,150.2l-1.753,1.643-.876,4.053v.11h-.11l-1.753,2.848-.11.11h-.11L89,159.731l1.1,2.629,3.615,6.792,2.739,1.972,5.806.986.219.11v.11l.329,2.739,2.41,2.848.11.11-.11.11v.329l4.93-.657.767-.767.11-.11.219.11.986.548h.219l-.11.219-.11,2.3,5.916,3.834,5.477-.11h.219v.11Z" transform="translate(7.95 13.574)"/><path class="a" d="M149.211,185.427l-3.506-3.286-.11-.11.11-.11,1.315-4.82-2.629-3.177-2.191.11h-.11v-.11l-5.806-3.725-4.491,4.382-.11.11h-.11l-3.4-.329-1.205,6.573.657,2.081v.219l-.11.11-4.382,1.972L122.7,187.4l.219,3.286,2.3,2.41,2.629-2.191.11-.11.219.11.657.657,5.039-.548h.219l2.52,1.315,4.6-2.739,1.1-1.753v-.11h.219l3.725-.219Z" transform="translate(11.167 15.483)"/><path class="a" d="M141.01,279.175l-.11,3.177,1.643,4.163,2.081-.438,1.424-1.315,2.958,1.424-.11,2.081-.876,1.862.986,1.1,2.848.986,1.205,4.053,1.1,5.039-1.315,3.067L154.155,307l3.286-2.081,1.424.438.986,2.191.767,3.725,2.081,1.534,2.629-1.643,2.41.11,4.6,1.972-.219,2.191,1.1,1.643,2.3.438,1.753-1.972,2.081,1.972,2.52,1.643-.548,3.944.548,2.3,2.629,2.848,2.081.767,2.191-1.315,1.753.548,1.205,2.629,5.368,1.643,2.191-1.643,2.3-3.286-4.053-8.873-.329-.219-.11-.11v-.11l-.876-2.629v-.11l.11-.219,2.191-1.643.548-1.643-1.1-2.3-5.7-1.753-2.629.657-1.315,3.286-.11.11h-.219l-3.4-.329h-.11l-.11-.109-3.067-3.067-5.806-1.315h-.11v-.109l-1.315-2.41v-.219l.11-.11,2.191-2.41-1.424-1.534h0v-1.643l.11-.219h.11l2.081-.657.219-3.506-2.958.11-1.424.986-.329.219-.11-.438-.438-4.163-.11-.219h.219l1.315-.548.219-2.52-1.424-1.424v-.219l.11-5.806-1.534-2.3-.11-.11h0v-7.887l-1.534-3.4v-.219l.657-3.067-2.081-2.3v.329h0l-1.1,3.506v.11h0l-.876,1.534v.11h-.11l-6.025,3.4-1.534,2.848h-.11v.11l-4.272,1.315h0l-2.191.329-4.272,3.725h-.11l-6.135.548Z" transform="translate(12.905 24.162)"/><path class="a" d="M115,278.89l2.739,2.52-.329,2.958-.767,2.191,1.643,2.958,3.177-1.424L123,284.915l1.862-1.972,4.382.767,2.52-1.972,1.643-.11,1.315.986,4.382-.329,3.286-.876,2.3-.438.11-.219.11-1.862-.329-1.643L142.5,274.07l-.11-.11v-.11l.329-3.725-2.52-3.177h0v-.11l-.876-3.506h0l-.219-2.081-1.972-.657h-.11L131,257.309l-.11-.11v-.11l-.11-3.4-5.916-.986h-.11l-6.354-3.725-.11-.11v-2.191l-.876-1.534-3.067-.329h-.11l-.11-.11-4.382-7.011-6.025,3.067h-.11l-3.4.657-.329,4.272v.219l-.986.876.219,3.4,1.862,2.3,2.629.657h.11l4.82,4.711.11.11v3.725h0l-2.191,2.41-.11,2.3,1.753.11,1.972-.767.329-.219v.438l.219,3.834,1.205,1.753,2.739.548.219.11v.219Z" transform="translate(8.895 21.928)"/><path class="a" d="M136.1,259.878l.219,1.972.876,3.506,2.41,3.067.11.11v.11l-.329,3.834,2.191,3.067v.11h0l.219,1.753h0v1.862l5.916-.548,4.272-3.615V275h.11l2.191-.329,4.053-1.315,1.534-2.739v-.11h.11l6.025-3.4.767-1.424,1.1-3.506.329-1.643-2.958-4.382-1.315-1.1-1.424.876v.11h-.11l-1.205.219h-.11l-.11-.109-2.52-3.506-.767.548-3.067,3.286h0l-1.862,1.1h-.219l-2.3-.548h0l-.11-.11-3.506-3.067-2.3-1.753-2.191.219-3.725.438-1.424,2.081v.876l1.1.657h.219l-.11.219-.329,2.41v.11l-.219.11Z" transform="translate(12.447 23.303)"/><path class="a" d="M128.5,253.823v3.286l5.916,3.177,2.191.767,1.424-.657.329-2.081-1.1-.548-.11-.11v-1.315h0l.11-.11,1.534-2.191.11-.11h.11l3.725-.548h0l2.3-.219h.11l.11.11,2.41,1.753h0l3.505,3.067,2.191.548,1.643-.986,3.067-3.286h0l.767-.548-2.3-2.848-.11-.219.219-.11.986-1.205-.219-2.41-4.6-.329H152.6v-.11l-2.629-3.725-3.286-.11h-.219l-.11-.219-1.205-2.958-3.615-4.382-.438.657-.657,3.177v.11h0l-.876,1.205-.11.219-.219-.11-5.477-1.862V244.4l-.11.11-1.205,1.315,1.1,2.081v.219l-.438,1.424h-.11v.11Z" transform="translate(11.721 21.689)"/><path class="a" d="M118.292,224.057H116.54l-1.753-.657-3.067,3.725-.657,3.834-.11,5.916v.11h0l-.986,1.424h-.11l-.657.329,4.382,7.011,3.067.329h.11l.11.11.986,1.643v2.191l6.135,3.506,6.025,1.1,4.382-4.272.438-1.205-1.1-2.081-.11-.11.11-.219,1.315-1.315v-5.806l-2.191-.219h-.11l-.11-.11L131.219,236l-3.506-.548-1.1.986-.219.219-.219-.329-2.081-3.505h0v-.11l-.329-3.944h-3.834v-.219Z" transform="translate(9.878 20.563)"/><path class="a" d="M126.226,217.5l-2.848,2.081L117.9,224.4l1.643,4.382h3.834V229l.329,4.163,1.972,3.177.986-.876h.219l3.725.657h.11l.11.11,1.424,3.286,1.972.109v-.109l.329.109,5.7,1.972.657-.986.657-3.286h0l.11-.11.657-.876,1.205-1.972.11-1.424L142,232.07h-.11v-.219l-.219-1.643-.986-.548-.548.876v.11h-.219l-3.834.11-.438,1.1v.219h-.219l-1.972-.329h-.11l-.11-.219-2.081-3.834h0v-.11l-.548-5.587Z" transform="translate(10.709 19.999)"/><path class="a" d="M142.015,232.287l-.11,1.534v.11h0l-1.205,1.862,3.725,4.491h.11v.11l.438,1.205,2.848-.767h0l3.615-.438.438-2.848v-.11l.11-.11,1.862-.986.11-.11h0l3.725-.876.438-3.177-1.1-5.477-7.121-2.3-4.053,1.1-.438,4.272v.11l-.11.11Z" transform="translate(12.886 20.658)"/><path class="a" d="M124.1,213.492l.986,2.848h0l.767,1.972,4.6,4.6.11.11v.11l.548,5.587,1.972,3.725,1.643.329.329-1.1.11-.11h.219l3.834-.219.548-.876.11-.219.219.11,1.315.767h.219v.11l.219,1.753,1.424.767,3.177-2.3.438-4.272v-.219h.219l4.163-1.205.11-6.135V219.3h.329l3.725-.11,1.972-1.643.219-.11.11.11,4.053,2.52,3.177-4.491.219-.219.219.219,3.725,2.739,2.629-1.205,1.205-1.424-2.3-2.848-4.6-4.711-2.52-1.205h-.11l-.11-.11-.767-2.41H159.7l-1.205.767h-.11l-9.75-.11-2.3,1.315-.11.11-.219-.11-1.205-1.205-2.958.219-1.315,1.753v.11h-.11l-2.081.438-5.477,3.286h-.11l-4.82.219Z" transform="translate(11.301 18.749)"/><path class="a" d="M159.269,219.42l-4.053-2.52-1.972,1.534h-.11l-3.615.219-.219,5.916,7.23,2.3.11.11.11.11.986,5.806h0l-.329,2.958,1.972-.767h0l6.025-.876h.11l4.272,1.315.11.11.11.11,1.315,2.191,2.191-2.081-.219-4.711-.986-2.3-2.848-3.286L161.9,224.24h0l-.11-.11-1.753-1.315-.11-.11v-.11Z" transform="translate(13.707 19.942)"/><path class="a" d="M173.94,235.062l-2.081,1.862-.219.219-.219-.219L170,234.515l-4.163-1.315-5.916.876-2.081.767v.11h-.219l-3.944.986-1.753.986-.329,2.848v.219h-.219l-3.834.548-2.739.767.438,1.1,3.286.109h.11l.11.11,2.629,3.834,4.711.219.219.11V247l.329,2.739v.11l-.11.11-.876,1.1,2.081,2.629h0l.219.219,2.52,3.615.986-.219,1.534-.986.11-.11.219.11,1.424,1.315h.11l3.067,4.491.11.11-.11.109-.11.767,2.41,2.739.11.11-.11.11-.657,3.177,1.424,3.177h.657l.986-2.081h0l1.1-2.52.11-.219h.219l1.972.11h.11l2.629,1.643.657-.876-.548-2.848-1.862-1.862v-.219l.438-2.958v-.219h.219l4.93.548,3.944-1.2.548-3.286-1.424-.219h-.11l-.11-.11-.876-1.1-.219-.219.219-.11,2.081-1.534.11-.657L185,252.261l-.219-.11v-.11l-.329-1.205v-.11l.11-.11.986-1.862-.657-.438-3.506,1.862-.11.11-.11-.11-4.163-.767h-.11v-.11l-1.753-2.848-.11-.11h0l-1.1-3.4h0v-7.887Z" transform="translate(13.277 21.498)"/><path class="a" d="M172.4,245.166l.548,1.534,1.643,2.739,3.944.767,3.615-1.862.11-.11.219.11.986.767.219.11-.11.219-1.205,1.972.219.876,1.862.219h.329l-.11.329-.11,1.1v.11h-.11l-1.972,1.424.657.876,1.534.219h2.52l2.52-2.3.11-5.7v-.329h.219l2.3.219,2.41-2.629,1.424-3.944h.11l2.3-2.52,2.629-6.9-1.315-.986h0l-1.643-1.862-2.081.438h-.11l-.11-.11-2.739-2.629-4.382-.11v1.534h0l-.219,2.081-.11.11h0l-3.177,2.629-.11.109-.11-.109-2.52-1.1-1.862-.219-1.972,7.121v.11l-.219.11-4.163.548Z" transform="translate(15.913 20.926)"/><path class="a" d="M190.381,252.2l-2.52,2.41-.11.11h-2.52l-.548,3.4v.11l-.11.109-4.163,1.315h-.11l-4.711-.548-.329,2.52,1.753,1.862h.11v.11l.548,3.067v.11l-.11.11-.767,1.205-.219.219-.219-.11-2.739-1.753-1.753-.11-1.1,2.41h0l-.986,2.3-.11.11H168.8v7.559l1.643,2.191v.219l-.11,5.806,1.315,1.534.11.11v.109l-.219,2.739v.11l-.11.11-1.315.438.329,3.615,1.205-.767v-.11h.11l3.4-.109h.219v.219l-.219,4.053v.219h-.219l-2.081.657v1.2l1.424,1.534.219.219-.219.219-2.3,2.41,1.205,2.082,5.7,1.315v.109h.11l3.067,3.067,3.177.329,1.315-3.177.11-.109h.11l2.629-.767.438-2.41.329-2.41v-.219h.219l3.4-.876.329-2.739h0l.11-.11,2.739-4.82h.11v-.11l4.82-2.629.11-.11.109.11,2.41,1.205h1.1l.876-3.067v-.11h.219l2.3-.767,1.315-1.1-1.753-1.862-1.1.438-1.753.986H205.5l-7.559-2.52h-.11l-1.753-1.424-.11-.109h0L194,279.149v-.219l.876-2.629v-.11l.109-.11L198.6,274l.11-.11h0l2.081.219h.11v.11l1.643,2.081h0v.11l.11,3.506,1.424,1.1,1.862-.767.11-.11h.11l1.753.219h.11l1.1.876h.109l2.629,2.629,1.315-.657.876-1.862-1.643-2.191h-.11v-.109l-.219-1.753v-.109h0l1.753-3.286.329-2.629-1.315-.11-.11-.11h0l-4.93-2.081v-.11h0l-2.191-1.643h0v-.11l-.767-2.41-2.081.548-.11.109-.11-.219-.986-1.205v-.11h0l-.329-2.191h0l-.329-1.315-2.191-.548-.219-.11v-.11l-.219-2.958-5.258-.219h-.329V252.2Z" transform="translate(15.569 23.313)"/><path class="a" d="M207.549,212.972l-3.506,1.643h-.219l-9.969-3.834-3.4,3.725-.11.219-.219-.11-1.643-1.315-.11-.11v-6.135l-.767-1.862-.11-.219.11-.11,8.107-8.983-.438-3.834-2.3-2.848-3.177.438-4.491,3.067h-.219l-4.053-.11-.548,1.424,2.848,2.629.219.219-.11.219-3.615,3.615h0l-1.753,1.862-.11,5.587v.219h-.329l-8.545-.11-3.506,3.4,2.191,2.191h0v.11l2.41,3.067.11.219-.11.11L168.878,219h-.11l-2.848,1.315h-.11l-.11-.11-3.725-2.629-3.177,4.382.767,3.067,1.643,1.315,7.449,1.315.11.11h.11l2.958,3.4h.11l.986,2.41v.11h0l.11,4.93v.11h0l.11,8.326.329.986,1.753-4.6.11-.11h.11l4.163-.657,1.972-7.121v-.219h.219l2.191.219h.11l2.41,1.1,2.848-2.41.219-1.972.11-1.753v-.219h.219l4.711.219h.11l2.739,2.629,2.191-.438h.11l.11.11,1.643,1.862,1.315.986,2.191-2.41,1.753-2.3-1.972-1.753-.11-.11v-3.067h.11l7.449-3.177-.219-3.944Z" transform="translate(14.614 17.297)"/><path class="a" d="M354.357,138.52l1.972.219.329-1.315L355.343,136l-1.643.438Z" transform="translate(33.223 12.218)"/><path class="a" d="M360.1,147.977l2.3.876,2.41-.438-.986-3.615-2.958,1.643Z" transform="translate(33.834 13.058)"/><path class="a" d="M373.807,151.429l-2.848.219-1.424,5.149-4.711-4.272-1.315,4.382,5.039,5.477.219,4.711-9.092-8.216-.329-5.149,3.944-4.711.548-7.559-1.643.767-1.862,5.149-2.848,2.52-2.958.876-2.848,4.272.109,11.283-7.011,11.064.438,6.682h7.121l5.916,7.011v6.682l-4.163,5.039,1.1,2.3,3.286,1.862-6.135,1.424-1.643-6.463,4.491-8-1.972-6.025-7.011-.986-3.834,3.725-.438,8.435-6.463,6.573-5.806,2.191-4.053,4.272-13.365-8.326v-3.944l8.983,4.053,4.711-1.862,7.559-4.82,5.149-10.3-.876-5.587,8.764-20.7.986-3.615-.986-4.711,5.7-5.368,1.205-7.668-4.491-5.806,4.6-.657-.657-5.477-4.6-.329-.329,4.053.986,2.41-2.848-1.205-4.272,3.286-5.149,6.682-4.053,3.834-6.025,1.424-3.067,2.958,3.067,4.163-3.4,6.135-4.711,1.424-.11,2.191,4.163,4.272-1.534,4.053.767,2.52,1.534,2.3-5.258,4.82-1.753-2.629-1.424-6.244-5.587-8.873-3.177,2.629,1.862,3.286.109.219-.109.11-3.834,6.9,1.424,5.039.11.11-.11.11-2.41,3.725-.109.11h0l-3.944,1.315-2.629,2.958v.11h-.109l-9.859.438-5.039,4.163-.11.11h-3.286l-.329,8.326v.219l-3.834,5.368,2.52,5.258,9.421.767h.219l4.491,3.505.11.11v.11l.109,4.6,1.643,1.424,10.845.657h.109l.11.11,3.286,4.163.11.11v.11l.219,6.9,1.862,2.41.109.11h0l-.219,4.6H316.3l6.463,6.025,9.092,3.944h0l.11.11,3.286,5.477,5.916,3.615,5.916.548,4.93-3.615.109-.109.219.109,4.382,4.163,4.6-.11h.109l.11.11,3.4,5.039,1.862.11h.11v.109l3.286,3.286,6.792-8.654.438-5.587v-.11l.11-.11,4.491-6.135-.876-5.039L376,244.107l-.109-.11v-.219l1.315-7.23-3.4-4.711-.11-.11.11-.11.986-10.078-4.272-5.587-.11-.11.11-.11,1.643-5.149-1.643-4.053-.11-.329h.329l5.477-1.534,2.3-5.916-1.205-7.011-5.806-1.424v-.11h-.11l-5.258-7.011-.11-.11v-.11l1.1-4.272v-.11l.11-.11,8-3.506.767-3.177-3.4-7.121v-.219l.876-4.711v-.11l.219-.11,3.506-.548-3.286-6.9h0v-.11Z" transform="translate(25.603 11.359)"/><path class="a" d="M257.66,308.786H261.6l3.286,5.587,2.739.329h0l.876-2.41h.11v-.11l4.711-4.382.657-3.286.11-.109h0l2.848-3.177.11-.109h.11l3.506.767.986-1.424.548-2.629-.986-2.629-2.958-1.1-.11-.11-.11-.109-.438-1.643v-.11l.11-.11,1.424-1.753.438-4.382v-.11h0l5.149-4.93.109-.219.219.219L287.9,283.7l.11.11-.11.219-1.534,2.191,1.972.329h0l.11.11,5.149,3.615,3.834-.548h.219l3.615,2.081,3.615.109,4.82-3.286-8.654-6.463v-.109h-.11l-4.163-8.216h0l-3.067-6.9-2.41-.548h0l-5.039-2.081h-.11l-2.52-2.41-.767,1.972v.219h-.219l-4.053-.219-.986,1.1v.109h0l-2.629,1.315h-.11l-1.972-.438-1.2.986-.11.11h-2.739l-3.177-1.424-1.424,2.629v.11h-.11l-4.6.876-2.848,5.039-.109.109h-.11l-8.107-.219-2.191,4.6.11,4.6v.109l-.219.11-2.081.548-.767,3.615,1.862,4.272h0l.767,2.848,3.4.986v.109h.109l3.067,2.848.11.109v.11l.11,2.848,4.6,4.053.11.11v.109l.329,2.629Z" transform="translate(22.672 24.239)"/><path class="a" d="M221.815,302.367l8,1.862,4.6,2.848L237.152,305l4.053,2.081,13.365,2.629,4.93-2.191V307.3l-.329-2.52-4.6-4.053h-.11v-.11l-.11-2.958-2.958-2.739-3.506-1.1h-.11l-.109-.219-.767-2.848-1.862-4.382h0v-.11l.767-3.615-3.834-1.862-2.848,1.424-.219.11-.11-.219-2.3-2.958-4.93-1.643-5.7,1.643.329,1.643h0l-.11,5.149v.11l-.11.11-7.668,5.7-.11,2.739,5.7,3.505.219.11-.11.219Z" transform="translate(20.285 25.728)"/><path class="a" d="M193.03,317.172l1.643-2.081,5.477-.438.438-3.944,2.52-1.424,2.739.219,3.286,2.52,1.972-1.862-2.41-3.944-1.1-4.053,2.629-2.848,2.52-.657,3.725,3.944,7.668.548v-.11h0v-.11l2.191-3.725-5.7-3.4-.11-.11v-.219l.219-2.958v-.11l.11-.11,7.559-5.7.11-5.039-.657-3.506-1.972-1.972-1.205.767h-.11l-1.972-.548h-.11l-8.216-7.011-1.424.329-.329,2.739v.109h0l-1.753,3.177L211,277.3l1.753,2.3.11.11-.11.11-.986,1.972-.11.11v.11l-1.534.767-.219.11-.11-.11-2.848-2.739-1.1-.767-1.534-.219-1.972.876-.11.11-.11-.11-1.753-1.315-.11-.11v-3.615l-1.534-1.972-1.753-.11-3.4,2.081-.876,2.52,1.862,4.272,1.753,1.424,7.449,2.41,1.643-.876h0l1.205-.548.219-.109.11.109,2.191,2.3.219.219-.329.109-1.534,1.315h-.11l-2.3.767-.876,3.067v.219h-1.753l-2.3-1.205-4.6,2.52-2.739,4.711-.438,2.958v.11l-.219.11-3.4.767-.329,2.3h0l-.329,2.41,5.587,1.643.11.11.11.109,1.205,2.52v.219l-.657,1.753v.11h0l-2.191,1.643Z" transform="translate(17.412 24.945)"/><path class="a" d="M248.767,218.4l-1.424,2.41-.986,2.3h0v.11l-4.6,6.025h0l-6.9,6.792h0l-.11.11-5.806,2.629-.11,2.52,1.862,3.615.11.219-.11.11-2.52,2.848-.438,3.834v.219l-1.643,1.972-.11.11h-.11l-5.477.219-.767,3.506v.11l-.11.11-2.3,1.424-.219.11-.11-.11-2.191-2.52L211.631,262v.109h-.219l-5.039.438L202.1,267.7l.767,2.41,1.972,1.534,4.93,2.191,1.534.219,1.643-.438h.219l.11.11,8.107,7.011,1.862.438,1.205-.767.11-.11.219.219,2.191,2.081.11.11v.11l.329,1.534,5.587-1.753h.219l5.039,1.753h.11v.11l2.3,2.848,2.739-1.424h.219l4.053,1.972,1.972-.548-.11-4.382v-.11h0l2.3-4.93.11-.109h.11l8.107.219,2.848-4.82-2.081-3.067v-.219l.219-2.958h0l.767-5.368-5.477-3.615h-.11v-.11l-.986-2.41v-.11l.11-.219,3.067-3.725-.548-3.286h0l-1.1-5.806-.11-.11.11-.11,2.629-3.725-.109-4.272-3.067-7.34-5.149-3.067-.11-.11v-.11l-.876-3.505Z" transform="translate(18.748 20.085)"/><path class="a" d="M280.274,189.9l-3.067.11-4.491,3.944h-.109l-4.053.219h-.11l-.11-.11-1.315-2.081-6.573,5.806-.986,3.725v.11h-.11l-6.792,6.135L245,220.683l1.534,1.643h.11v.11l.767,3.506,5.149,3.067.11.11h0l3.177,7.449v.11h0l.11,4.491v.11h0L253.326,245l.986,5.7h0l.657,3.4.11.11-.11.11-3.177,3.725.876,2.3,5.587,3.615h.219l-.109.219-.767,5.477h0l-.219,2.958,1.972,2.958,4.382-.876,1.424-2.629.11-.219.219.11,3.286,1.424h2.41l1.315-.986.11-.11h.109l1.972.438,2.41-1.205.986-1.205.109-.11h.11l3.944.219.876-2.191.11-.438.329.329,2.739,2.629,5.039,2.081,2.52.548h.11v.11l3.177,7.011h0l4.163,8.107,8.654,6.573,4.82-2.739.548-2.958v-.11l.109-.11L318.4,287.4h.219l3.4.438,2.958-9.64v-.11h.11l4.272-3.177.109-.11h.11l4.491,1.315h.11l6.025,4.053,9.312.219h.11l6.463,4.71,7.778-4.382.11-.109.11.109,4.053,2.848,4.491-.548,5.039-2.191.876-2.3-5.7-3.177-.11-.11v-7.23l-3.4-3.286-1.753-.219h-.11l-.11-.11-3.4-4.93-4.491.11h-.11l-.11-.11-4.382-4.053-4.82,3.505v.11h-.11l-6.135-.657h-.11l-6.025-3.615-.11-.11h0l-3.286-5.477-8.983-3.944h-.11l-6.463-5.916h-7.668l.11-.329.11-4.711-1.862-2.41h0v-.11l-.329-6.9-3.286-4.163-10.736-.548h-.11l-.11-.11-1.753-1.534-.11-.11v-.11l-.11-4.491-4.382-3.4-9.531-.767h-.219v-.11l-2.629-5.587-.109-.11.109-.11,3.944-5.477Z" transform="translate(22.844 17.364)"/><path class="a" d="M108.017,134.6l-1.315.986-.767,1.972.11,6.792v.219h-.219l-4.93,1.643-.329,2.3v.219h-.219l-1.643.11-.438,1.643v.11h0l-.767.767L99.253,153l3.177,2.3,6.135,1.643h0l.11.11,2.081,1.753,5.916.548.438-2.191v-.11l.11-.11,1.205-.876.11-.11.11.11,2.848,1.972.11.11v.11l.548,2.52,3.286,2.629,2.848-.11.11-.11.11.11,4.491,3.944.219-1.972-.767-2.52-2.081-2.191-.11-.219.11-.11,1.862-2.958-.329-3.286-1.753-3.506v-.219l.438-2.41-1.643-.219h-.219v-.219l-.438-1.534-3.067-.11h-.11l-.11-.11-.876-1.643V143.8l.767-1.534-.11-1.862-2.41-.767-.657.876-.11.11h-.11l-1.643-.219h-.11l-1.643-1.424-2.629.329h-.11l-.11-.11-1.534-2.629-1.643-.876-2.958,1.534-.219.11-.11-.329Z" transform="translate(8.761 12.084)"/><path class="a" d="M136,172.12l5.7,3.725,2.3-.11h.219v.11l2.739,3.286.11.11v.219l-1.315,4.82,3.506,3.286,9.421.548h.11l6.354,3.834h0v.11l4.163,7.449,6.573,3.944,4.491-1.205h.219l.11.11,1.862,1.972,3.177-3.286-2.739-2.629-.219-.11.11-.219.767-1.753v-.11h.219l4.163.11,4.382-2.848v-3.067l-3.067-1.534-.219-.11.11-.219.986-2.52-2.848-.986-1.862.876-.219.11-.11-.329-2.191-5.587-5.477-.219h-.11l-.11-.11-3.506-4.053-3.4-2.081h0l-3.177-3.067h0L157.8,159.96h0v-.11l.657-5.368v-.11h.11l3.4-3.944-2.3-.767-.11-.11v-3.725H156.7l-1.862,1.753-.11.11h-.11l-3.944-.219h-.219l-1.862-1.972h-1.753l-2.629.876-4.163,3.177-2.848,5.7v.219h-.219l-4.6-.329-2.52,1.315L128,159.3l1.972,2.081v.11h0l.876,2.629h0v.11l-.329,2.3h4.82v.219Z" transform="translate(11.673 13.125)"/><path class="a" d="M108.63,122.6l-2.739.219-4.491,3.506-2.52,3.506-5.039-.219-2.958,4.93-3.615.438-.11,3.944-5.258,3.4.219,5.039,2.191,2.629-2.41,3.067.548,2.41,3.4.876.767,3.506-1.1,1.972h.219l2.3-.548h.11l1.205.657,4.382-.876,1.753-2.629.986-4.053v-.11l.11-.11,2.739-2.739.438-1.753.11-.11h.11l1.643-.219.329-2.191v-.219h.11l4.93-1.643-.11-6.573h0v-.11l.876-2.081v-.11h0l1.643-1.315,1.534-4.93-2.081-3.4h0v-.11Z" transform="translate(7.272 10.939)"/><path class="a" d="M133.42,116.2l-4.711.11-5.916,2.191-.219,4.711.548,2.081-1.753,1.424-1.315-3.286-2.3-.11-3.506-3.4-4.491,2.848-2.958.329.219,4.053,2.081,3.4.11.11-.11.11-1.643,5.039.767,2.52,2.848-1.424h.219l1.862.876.11.11h0l1.424,2.629,2.52-.329h.219l1.643,1.534,1.424.11.767-.986.11-.11.11.11,2.739.876h.11l.11.219.11,2.191h0v.11l-.767,1.424.767,1.315,3.067.11h.219v.219l.438,1.643,1.862.219h.219v.329l-.548,2.629,1.753,3.4h0v.11l.329,2.958,2.3-1.2h.219l4.491.329,2.739-5.7v-.11h0l4.382-3.286h0l2.739-.876h3.834l1.972-1.534-3.615-4.711-2.3-.438-.219-.11v-.11l-1.1-3.615-1.534.11-.219,2.191v.329l-.329-.11-1.205-.219-.11-.11h0l-.876-1.534-1.205.329-.11,2.629v.219h-.329l-1.643-.438h-.11l-.11-.11-.876-1.862h-4.6l-.11-.11-1.862-2.629h-4.382v-.11l-1.205-1.424-.11-.219.11-.11,7.34-8.873Z" transform="translate(9.649 10.328)"/><path class="a" d="M189.459,102.8l1.205-7.34,1.643,2.41-.657,5.149,2.191,4.6.548,7.559,2.958,4.6.767,4.711,11.174,6.682,6.792-1.205,5.149-7.011,1.424-7.449-2.3-8.873.329-12.927L219.256,89l-3.615-5.7-.548-4.382,1.534-.986,2.191,2.958,2.191-1.424-2.081-3.834-7.559-5.149L200.524,69.5l-2.191,1.534-5.368,3.177.11,4.272-3.725,6.025-7.23.11-2.52,3.067,5.368,7.121.11.11-.11.11-.767,4.163,4.382,2.191.11.11h0Z" transform="translate(16.6 5.869)"/><path class="a" d="M180.677,130.976l-.329-2.41.438-1.972-1.862-2.52,1.753-3.177,5.258-6.573,4.382-1.424,2.629-4.491.986-6.354-1.1-1.862L188.346,98l-.219-.11.11-.219L189,93.4l-5.149-6.9-6.025,7.668-3.177-.219L170.6,96.688l-2.848-.11-1.1,2.848-1.315,2.41-2.3,1.753,1.315,2.41-1.534,1.534-5.368-.767-1.424,4.93-.986,7.559-3.177,1.315-14.022-1.862-6.244.219.11,4.163,3.506-.767h0l4.6.657h.11v.11l1.862,2.52v.219l-.11,3.067v.219l-1.643,1.753.219,3.506v.11h0l-.438,3.067v.11h-.11l-2.3,1.753-.657,1.753.876,1.862,1.205.219.219-2.41v-.219h.11l1.534-.548h.219l.11.219.986,1.534.767.219.219-2.191v-.219h.219l1.862-.11.219-.11.11.219,1.1,3.725,2.3.438h.11v.11l3.615,4.711.548-1.534-.438-4.491h0l.11-.11,1.534-3.177h.11l5.806-6.354.11-.11.11.11,3.506.767h.11v.11l1.1,1.972v.219l-.548,3.4v.11h0l-2.52,2.52-4.272,4.711-1.205,4.163h3.177v3.944l2.3.767,1.643-1.862.11-.11H166l.767-3.834h0l.11-.11,3.944-4.053-.986-1.643h0l-1.205-2.081-.11-.11v-.11l.986-3.177v-.11h0l3.834-3.834.329-2.081.11-.219h.219l2.629.767,1.643.329,2.081-2.191v-.11h0Z" transform="translate(12.017 7.492)"/><path class="a" d="M235.773,153.5l-5.258,6.792,1.862,2.848v.329l-1.205,2.191.876,3.615v.219l-.11.11-3.4,1.862-.11.11-.219-.11-4.272-2.739-4.163.11-.219.11-.11-.219-.657-3.177-10.517-8-1.1,1.753,2.848,4.711.11.11v.11l-.986,4.053v.11h0l-2.52,2.52,1.1,1.972.11.11h0l.11,2.191v.219h-.219l-4.163.219-3.177,4.272-.219,2.52,3.944,1.643,1.643-1.972v-.11h.11l3.725-1.205.219-.11.11.219,2.3,4.6.11.219-.219.11-8.545,6.792-.219,3.834v.11h-.11l-2.958,2.3-.11.11h-.219l-3.725-1.534L193.6,199.62l-8,8.873.767,1.862h0v6.025l1.315.986,3.4-3.725.11-.11.11.11,10.078,3.834,3.505-1.534,1.972-4.93.11-.219h.219l6.682.657h.11v.11l5.039,5.587L224.38,220l7.668.767,2.958-1.643.219-.11.11.11,8.216,6.792,5.039.657,9.2-15.556v-.11h0l6.792-6.135,1.1-3.725v-.11h.109l6.792-6.025.219-.219.109.219,1.424,2.191,3.834-.11,4.382-4.053h.219l6.9-.11,4.93-4.163h.219l9.75-.438,2.629-3.067h0l.11-.11,3.834-1.205,2.3-3.615-1.424-4.93-.11-.11.11-.11,1.753-3.177-1.862-.438-1.205,1.862-.11.11h-2.41l-3.067,2.848-.11.11-.11-.11-3.615-.767-2.739,3.177-.11.11h-.11l-8.107.657h-.11l-.11-.11-35.384-25.306-3.4,1.1h-.109Z" transform="translate(17.173 13.889)"/><path class="a" d="M182,118.21l1.1,1.205,1.534-.986-.438-1.753-1.1-.876-.876,1.205Z" transform="translate(16.829 10.289)"/><path class="a" d="M279.129,122.13l1.862-1.424v-2.958L278.8,117.2Z" transform="translate(26.071 10.423)"/><path class="a" d="M314.221,164.982l-2.739-4.93-7.121-7.778h-5.477l-.657,3.177-.219,4.711-3.834,2.3-2.081-.438-1.534,2.081-2.629-2.081L291,159.176V156l-10.078-.11-5.039-3.725-7.668.657-2.739-3.725,4.6-.438,2.41-4.711-6.135-1.424-2.958,3.506-1.424-2.629L246.3,139.567l-1.972,1.972-2.3-2.081-8.326,4.82-4.272-4.163,1.315-3.725-1.315-3.725,5.149-1.643,4.711,3.286,2.3-3.725-.219-6.792L235.127,117l-1.862,6.682-8.545,5.587-.767,4.272-4.053,3.725,1.534,8.545,4.6,6.792,4.053.438.11.11.109.11,2.191,3.177,15.337,1.643,3.4-1.1h.219l.11.11L286.943,182.4l8-.657,2.739-3.286.11-.11.219.11,3.615.767,2.958-2.739.11-.11h2.41l1.205-1.862.11-.11h.109l2.3.438,1.753-3.177-1.862-3.4-.11-.219.219-.219Z" transform="translate(20.448 10.404)"/><path class="a" d="M295,148.054l-3.177.329-2.52-4.163.657-3.834,4.053-.986,1.2,4.272Z" transform="translate(27.074 12.543)"/><path class="a" d="M249.7,129.768l2.52,3.286,5.7.11.767-2.191-.438-3.177-3.067-3.4-4.382,1.534Z" transform="translate(23.293 11.111)"/><path class="a" d="M289.917,137.807l1.315-12.708,1.1-4.93,4.163-4.491,5.039-1.643,1.972-2.848-1.205-3.506,3.725,2.3,3.286-.329.876-2.52,2.191.219.11-2.52,2.739.986.438-2.52,2.081,2.191,1.424-1.972.548-3.067,2.848,2.081,1.862-1.753,3.834.876,3.177-3.725,24.429-.438,5.806-3.177.657-4.382-2.52-2.958L354,88.4l-.986,2.191-10.078-.767L338.556,86.1l-3.834,2.191-3.834-1.643-4.82,3.177h-4.053l-1.972,1.643-2.629-2.848-1.424,5.806-2.958.219-.329,2.3-7.559,2.41-2.629-1.205-1.753,1.972,2.191,2.191-2.958,2.848-4.82-1.972-.767,3.615-3.506-.11-.11,2.848-4.82,2.52-3.067-1.1-3.286,2.52-.219,3.725,3.177,3.177.219,4.82-3.067,3.067,2.41,5.149,2.629.329.11,2.3,3.067.657Z" transform="translate(26.129 7.454)"/><path class="a" d="M225.591,137.246l-4.382,3.834-1.972-3.725,2.848-.548-3.615-6.682-5.368.767-5.477-1.753-6.682.986-3.725,9.2-2.739-1.534-3.834-8.983.548-7.011-6.244.657-1.753,6.025,2.739,3.286-2.629,3.506-4.053-2.3-.767-4.82h-.11l-2.081,2.3-.11.11h-.11l-1.862-.438h0l-2.3-.548-.329,1.753v.11l-.11.11-3.834,3.834-.876,2.958,1.205,2.081,1.1,1.753.11.11-.11.219-4.053,4.163-.876,3.944v.219h-2.41l-1.753,1.862h0l-3.615,4.163L155.7,162l9.2,10.517,3.177,2.958,3.4,2.081v.11h0l3.506,3.944,5.477.219h.219l.11.11,2.191,5.587,1.643-.767h.219l3.177,1.1.219.11-.11.219-.876,2.629,2.958,1.424.11.11v3.177l3.067-.438h.11l.11.11,2.52,2.958v.219l.329,3.506,2.41-1.972.11-.11.219.11,3.725,1.534,2.739-2.191.219-3.725v-.11l.11-.11,8.545-6.792-2.191-4.163-3.4,1.1-1.753,2.081-.11.219-.11-.11-4.272-1.753-.219-.11v-.219l.219-2.739V182.6l3.4-4.382.11-.11h.11l3.944-.219-.11-1.753-1.205-2.081-.11-.11.11-.219,2.629-2.52.876-3.944-2.958-4.82-.11-.219.11-.11,1.424-2.081.11-.219.219.11,10.845,8.326v.11h0l.767,2.958,3.944-.11h.219l4.272,2.739,3.067-1.753-.876-3.506v-.219l1.205-2.081-1.862-2.958-.11-.11.11-.11,5.368-7.011-2.081-3.067-4.163-.548h-.11l-.11-.11-4.6-6.9h0Z" transform="translate(14.318 10.862)"/><path class="a" d="M350,46.991l1.753,1.643,2.52-2.081L352.958,44.8l-1.753.438Z" transform="translate(32.869 3.511)"/><path class="a" d="M353.5,48.386l1.424,1.1,2.3-1.205.657-2.739-1.753-.438Z" transform="translate(33.203 3.539)"/><path class="a" d="M359.3,48.172l2.3,2.081,4.711-2.3-.876-2.629L362.258,43.9l-2.848,2.41Z" transform="translate(33.757 3.425)"/><path class="a" d="M363.9,43.381l1.972.986,1.315-1.534L365.543,41.3Z" transform="translate(34.196 3.176)"/><path class="a" d="M371.9,38.305l.657,2.081,1.972-.767-.767-2.52Z" transform="translate(34.96 2.775)"/><path class="a" d="M365.857,33.581l1.1.986,1.424-1.1L366.3,31.5l-1.1.876Z" transform="translate(34.321 2.241)"/><path class="a" d="M360.3,34.715l.329,1.643,2.3,1.534,1.314-2.081-1.205-2.41Z" transform="translate(33.853 2.422)"/><path class="a" d="M356.7,36.2l4.163,3.834-.548,3.177-4.163-1.424L353.3,38.61Z" transform="translate(33.184 2.689)"/><path class="a" d="M367.1,47.586l.548,2.41,4.711-.11,1.862-3.067-1.534-2.52-1.972,2.848-3.067-.767Z" transform="translate(34.502 3.463)"/><path class="a" d="M355.5,52.543l1.205,1.753,1.1-1.424-1.1-1.972Z" transform="translate(33.394 4.093)"/><path class="a" d="M344.9,41.334l1.972,3.177,2.191-2.081-1.1-2.629Z" transform="translate(32.382 3.033)"/><path class="a" d="M349.9,40.4l.438,1.862,1.205-.876-.986-2.081Z" transform="translate(32.86 2.985)"/><path class="a" d="M348.1,30.815l1.424,1.972,1.315-1.315L348.648,29.5Z" transform="translate(32.688 2.05)"/><path class="a" d="M336.1,27l.657,2.739,2.081,1.534,2.848-.219,1.753,1.424,1.1-1.315-2.191-1.972-1.972.548Z" transform="translate(31.542 1.811)"/><path class="a" d="M336.619,33.334l-.219,2.3,2.191,2.191,2.081,2.629.657-1.205-.548-2.629,2.848-.657,3.725,1.315,2.3-2.41-2.081-2.41-1.862-.657-1.862,1.424-2.52.329-1.534.657Z" transform="translate(31.571 2.269)"/><path class="a" d="M340.838,41.2l-.438,1.534,1.643.986.11-2.081Z" transform="translate(31.953 3.167)"/><path class="a" d="M40.4,104.743l9.75,20.924,6.025-3.177.438-11.5L53.765,106.5l-1.315,5.258L49.6,109.892,47.3,103.1l-2.958,1.862Z" transform="translate(3.31 9.077)"/><path class="a" d="M74.221,244.9l-.11,1.424-4.382-.11-1.753,2.52-2.3.329-2.739,4.82-4.491,1.753-3.286-4.93-7.778-.986-3.615,3.725,7.778,4.6-2.3,1.534-3.944-2.41L43,259.032l1.315,2.629h2.958l.11.11,3.4,4.163.11.219-.11.11-2.52,4.82,3.286,4.053.11.11-.11.11-.767,1.534-.219,3.286,1.972,2.3,1.753-1.972.11-.219.219.11,2.958,1.1,1.1-1.753.11-.219.219.11,2.3.986h.219v3.834l2.848,1.315.11.11v3.615l1.534,2.41,3.4-.438,1.1-1.972.11-.219h5.806l3.4-3.725-.11-1.862-3.177-.438H76.3v-.219l-.219-2.739-2.958-4.053-.11-.11.11-.11,1.534-5.7-1.972-2.848-.11-.219.219-.11,4.163-2.41.219-.11.11.11,1.534,1.534,2.958-.219,1.643-3.286-.548-5.7-.11-.219.219-.109,4.382-2.848-.767-7.011-3.4-.11-2.52,1.753-.219.11-.11-.11-2.739-1.862Z" transform="translate(3.558 22.616)"/><path class="a" d="M101.373,287.5l4.82-1.534.767-3.725,4.163-2.3,4.382-1.1,1.643-.548-.219-6.025-2.629-.548-.11-.11h-.11l-1.315-1.972h0v-.11l-.11-3.506-1.753.657h-.11l-2.081-.11h-.219v-.329l.11-2.629h0l.11-.109,2.081-2.41v-3.286l-4.6-4.6-2.739-.548h-.11l-.11-.11-1.862-2.52h0v-.11l-.329-3.506L97.1,245.105l-.11-.11v-.11L95.348,241.6l-2.191.657h-.11l-4.163-.548-.329,2.848v.11l-.11.11-3.944,2.3.767,7.23v.11l-.11.11-4.382,2.958.548,5.587h0v.11L79.464,266.8v.11h-.219l-3.177.219h-.11l-.11-.11-1.424-1.424L70.7,267.782l1.862,2.739h0v.219l-1.534,5.587,2.848,3.944,7.011.767.657-1.972.11-.219h.219l2.41.219h.11l.11.219.767,3.615,2.629.329,2.41-1.534h.219l8.435,1.753h.11l.11.11Z" transform="translate(6.203 22.3)"/><path class="a" d="M79.948,316.713l4.491,1.643,12.05-.329-.986-4.711,2.958-.548,2.3-12.927L98.79,297.1l-3.067-.657.438-2.41,3.725-3.506-3.286-4.6,1.643-.767,2.081-.986-2.191-3.725L89.917,278.7l-2.191,1.424,1.534,3.944v.11h0l-1.643,7.449,1.972,3.506.11.11-.11.11-1.972,5.7.767,3.505.11.329h-.329l-3.506-.438-1.862.876-.219.11-.11-.219-1.315-1.862-1.1,1.315,1.862,4.382.11.219-.219.11-2.52,2.081h0L77.1,312.66Z" transform="translate(6.814 25.843)"/><path class="a" d="M72.924,318.714l4.491.109,4.272-1.972-2.848-3.944-.11-.219.219-.11,2.52-1.315,2.3-1.972-1.862-4.382-.11-.11.11-.109,1.534-1.753.219-.329.219.329,1.315,2.081,1.753-.767v-.11l.11.11,3.177.329-.767-3.286h0l.11-.11,1.862-5.587-1.862-3.505-.11-.11v-.11l1.643-7.449-1.534-3.944-2.848-.329-.11-.109-.11-.11-.767-3.615-1.972-.219-.657,2.081-.11.11h-.219l-7.011-.767.11,2.3,3.177.329h.219v.219l.219,2.191v.219l-3.615,3.944-.11.11h-5.7l-1.1,2.081-.11.11h-.11l-3.834.438h-.11l-.11-.11-1.534-2.629-.11-.11h0v-3.4l-2.739-1.315-.219-.11v-3.725l-1.972-.876-1.1,1.753-.11.219-.219-.11-2.958-1.1L52,279.934l1.972,2.41,1.972-.438h.219l.11.11,1.315,1.972,2.629.767h.219v.11l1.205,3.177,2.739,4.82h.11l-.11.11-.767,4.711,2.958,5.258h0v.11l.986,4.163h0l-.11,4.272,4.491,4.491v.11h0Z" transform="translate(4.417 25.594)"/><path class="a" d="M46.034,330.49,44.5,332.024l.329,4.272,3.944,5.7-.219,6.025-.767,2.848,3.615,4.491,1.753-.767.986-1.643,2.081,1.1,2.3.657,2.739-1.643V345.5l1.862-10.736,6.9-6.573.548-6.9-.767-2.958,3.4-2.52-.986-2.629L67.834,308.8l-1.643,1.315h-.11l-4.711-.11-2.52,1.972.876,1.753.11.219-.219.109-2.191,1.424,2.848,4.053,3.067.657h.11l.11.109.986,3.834v.219l-.219.11-2.3.986h-.11l-2.41-.219-3.177,6.025-.11.329L56,331.367l-2.41-2.081-1.424,1.643-.11.11h-.11Z" transform="translate(3.701 28.717)"/><path class="a" d="M44.8,324.674l.986,2.739.438,2.081,5.587.548,1.534-1.753.11-.109.219.109,2.3,1.972,3.067-5.806.11-.219h.11l2.52.219,2.191-.876-.876-3.4-3.067-.548h-.11l-.11-.11-4.053-5.806-3.177-.219-1.534.657L52.8,320.73v.219h-.11Z" transform="translate(3.73 29.165)"/><path class="a" d="M43,321.859l.11,1.205,1.534,1.1,7.778-3.615L50.778,314.3l-1.424.657-1.315,4.163-.11.109v.109l-1.972,1.534h-.11v.11Z" transform="translate(3.558 29.242)"/><path class="a" d="M37.5,313.162l.219,4.93,5.806,2.629v.876l2.629-.876,1.862-1.534,1.424-4.272v-.11h.11l3.177-1.424-2.52-2.081-.876,1.643-.11.219L49,313.053l-6.463-1.534-4.93,1.534Z" transform="translate(3.033 28.955)"/><path class="a" d="M33.7,304.239l2.958,3.286.219,4.6.876,1.424h.11l4.93-1.643h.11l6.354,1.534,2.081-3.506-.876-2.848H47.284v-.11l-5.916-5.258-4.163-.219Z" transform="translate(2.67 28.02)"/><path class="a" d="M27,291.7l3.506,5.806v3.615l3.506,3.834,3.615-2.739v-.11h.11l4.053.219-.11-4.272v-.11l.11-.11L43.98,296.3,40.8,290.5l-.986,2.081-.11.219-.219-.11-3.725-.329h-.11l-.11-.11L33.463,289.4Z" transform="translate(2.03 26.864)"/><path class="a" d="M21.005,257.572l.329,5.039L19.8,264.474l.767,2.191,2.3,1.753-.11,3.615,1.315,5.7-.438,5.258-.986,8.764,1.1,1.534,2.3-.986,1.534,2.52,6.792-2.41.219-.11.11.11,2.081,2.848,3.506.329,2.52-5.039v-.11h.11l2.629-1.1-.986-1.534-.11-.11.11-.11,1.534-2.739-1.643-1.424-.219-.219.219-.219,1.972-1.972.219-1.643v-.11l.11-.11,2.191-.986.219-.11.11.219,1.424,2.52,1.862-1.534.219-3.286h0l.767-1.424L50.254,270.5l-.11-.11.11-.11,2.52-4.82L49.6,261.516H46.53l-.11-.11-1.753-3.4L39.409,253.3l-.767,6.9-2.848-1.424-5.477.329-1.972,2.629-4.053-6.682-3.286,2.52Zm5.368,31.44-.219-3.4h0v-.438h.438l3.506-.329v-2.081h0v-.219l.11-.109.11-.11h0l3.944-3.067-2.52-1.534h0L28.564,274h0l-.11-.11-.11-.11v-.219l.438-2.958h0v-.657l.329.11.329.11,2.739.986H32.4v.219h0l2.191,3.506h3.506v.438l.219,3.177,2.191,1.862.11.11.11.11v.219l-.219,4.382v.438l-3.177,4.163-.438.548-.438.548-.11-.657-.11-.657-.438-3.615-4.93,5.477-.11.109-.11.11-.219-.11-.219-.109-3.725-1.753-.11-.11-.11-.11v-.11l.11-.329Z" transform="translate(1.343 23.418)"/><path class="a" d="M50.526,277.586l-1.972,1.643-.219.219-.11-.329-1.534-2.52-1.753.767-.219,1.643v.11l-.11.11-1.753,1.753,1.534,1.424.219.11-.11.219-1.534,2.848,1.1,1.643.219.219-.329.11-2.848,1.205-1.205,2.3,3.4,6.463.11.219-.219.11L41,299.386l.11,4.272,5.806,5.258H50.2l.11.219.986,3.177v.219l-.986,1.643,2.739,2.3,3.4.219h.11v.11l.986,1.315,2.081-1.315-.876-1.753-.11-.219.11-.11,2.848-2.191h.11l4.711.11,1.643-1.205.219-4.163-.986-4.163-2.958-5.368h-.11v-.11l.767-4.711-2.739-4.711h0l-1.1-3.067-2.629-.767h-.11l-.11-.11L57.1,282.516l-2.081.329h-.11l-.11-.11Z" transform="translate(3.262 25.642)"/><path class="a" d="M26.1,284.118l.219,3.4,3.725,1.753,5.368-5.916.438-.438.11.548.438,4.163,3.177-4.163.219-4.382-2.3-1.862-.11-.11V277l-.11-3.286h-3.4l-.11-.11-2.3-3.615L28.729,269h0l-.438,2.958h0l3.177,3.834h0l2.848,1.753.329.219-.329.219-4.272,3.177h0v2.52h-.219Z" transform="translate(1.944 24.917)"/><path class="a" d="M433.862,384.611l12.05,4.82,11.174,2.629,2.3,8.873,8.107,4.272,5.806-.11,8.107-4.93,6.354,1.972,6.573-.329,1.643,2.958,3.834.109,1.205-4.491v-.219h.11l3.615-1.862-3.834-4.272-.219-.219.219-.219,3.834-3.067-1.424-4.272-.11-.329h7.559l4.382-3.725.109-.11h.11l3.944.548,7.449-9.75.11-.11h.11l4.71-.329,1.424-2.41h0l.11-.11,4.053-1.643,3.067-3.834.438-4.053-3.286-2.191h-.11v-4.272h.11l7.011-5.477,2.41-5.477.11-.109.109-.11,6.135-2.191-.329-4.93-3.834-3.4-4.163-.767h-.219v-.11l-3.505-10.626-2.3-2.081-.11-.11.11-.219,2.191-3.067-.329-3.067-2.52,2.958-.109.11-.219-.11-2.191-.329-1.2,4.82v.219h-.219l-11.831,3.177-.109.11-.11-.219-1.972-2.629h-2.739l-.11-.11-2.52-1.315-1.424,3.286v.11h-.11l-5.7,1.862v.11l-.109-.11-2.958-.986-.657,3.286v.219h-.219l-5.7.657.438,2.848L502,333.124l.219.11-.219.219-2.848,3.506-.548,5.258,1.862,4.491.329-.876,1.1-7.23v-.11H502l1.862-3.4.11-.11h.109l2.52.329h.219v.219l.438,2.739h0v.109l-1.205,6.463.438,6.463,1.1,3.4v.219l-1.315,3.286-.109.11h0l-1.972,1.862-.657,1.205.657,2.3h0v.109l-.876,2.191-.11.11-.109.109-2.081.438-.219,2.52h0v.109l-2.739,4.491-.11.11h-.109l-4.053,1.315-2.739,3.725-.109.11h-.219l-3.067-.329-.876,4.82h0v.11l-2.3,2.629h-.11l-7.559,3.4-.986,3.286v.219h-.109l-4.82,1.643-.329.109v-.329l-.767-2.739-5.039-.986h-.219v-.219l-.438-3.725-3.505-4.491h-4.82v-.11l-9.859-7.778h0l-3.067-4.163-4.93,3.506h-2.958l.219.548v.219l-.11.11-1.534,1.424.548,2.191.11.11-.11.109L432,381Z" transform="translate(40.699 29.041)"/><path class="a" d="M370.7,400.547l18.4-6.9,6.573-.438,1.205,1.753,9.859,2.191.657,4.382,3.725,1.862,10.407,1.1,4.163.657,2.191,1.972,3.286-1.205,2.958-2.52,2.191-5.258-3.615-4.272.438-6.682,2.3-.657.11-2.958,3.067-.219.767-3.177-1.862-3.725-.109-.219.109-.109,2.081-2.41-.548-2.191v-.11l.109-.11,1.534-1.534-.438-1.534-4.272.329h-.11v-.11L425.036,361l-.657,2.958v.11l-.219.11-13.036,1.1-.876,3.506v.11l-.219.109-2.52.657.219,2.41.109.11-.219.11-3.506,2.3-.109,2.3v.219h-.219l-2.41.548-4.382,3.615-.109.11h-.11l-10.078-1.315h0l-.109-.109-6.135-4.272-2.848-.219-1.862,4.82-.11.11-.11.11-7.121.438.438,4.93,4.272,7.559.109.219-.219.219-2.958,2.081Z" transform="translate(34.626 33.7)"/><path class="a" d="M334.2,389.586l.548,4.93,4.6,2.629.11,4.82,4.6.986,1.862,2.3,5.149-2.739.986,3.615,3.286,4.82,5.149.548,1.534-3.4,6.9-.329,4.6-3.4-.767-5.039v-.109l.11-.11,2.958-1.972-4.163-7.449h0v-.11l-.438-4.82-3.725,2.848-.219.11-.11-.219-3.4-4.272-.11-.11v-.11l1.205-5.149-1.862-2.191-5.7-.219v.11H357.1l-3.615.767h-.11l-.11-.109-2.958-2.3-.219,2.41v.219l-2.848,4.272-.11.11h-.11l-5.258-.438-4.163,1.424-1.643,2.3,2.629,1.315h.11v.11l.767,3.067.11.329h-.329l-5.039.548Zm31-12.05,3.177-1.1,2.3-1.205,3.944-3.944-.876-2.52v-.219l.657-2.848-.986-3.725v-.11l.11-.11,2.629-3.286,1.315-4.053-3.834-1.315h-.11V353l-.767-2.41v-.11l.11-.11,3.067-3.944-1.643-3.944v-.219l.767-3.067v-.11l.11-.11,4.053-1.862,1.972-1.972-4.272-8.216v-.219l.657-2.848-4.6,1.972h-.219l-5.916-2.629-6.792.986-2.52,3.067-.11.11H350.3l-.11,18.733,2.52-.329h.219v.219l.438,3.725,3.506,3.725h0l1.205,3.286,3.286,2.3.219.219-.219.219-2.52,2.958,1.972,2.191.11.11v.11l-.986,3.834v.11l-.11.109-2.52,1.643-.219,4.491,5.806.219h.11l.11.11,2.081,2.191Z" transform="translate(31.361 30.091)"/><path class="a" d="M301.2,345.42l7.011,33.193,3.615-.548,2.629-3.725,2.41.986.767,3.834,7.778,4.272,6.244-2.3,3.286,1.424,2.3,4.93,4.492-.548-.548-2.739-2.739-1.315-.329-.219.219-.219,1.862-2.629.11-.11h0l4.382-1.424h.11l5.039.438,2.848-4.163.219-2.739v-.548l.438.329,3.177,2.52,3.286-.548.219-4.93v-.11h.11l2.629-1.643.876-3.615-2.081-2.3-.109-.219.109-.11,2.41-2.958L360.9,355.5h-.11v-.11l-1.205-3.286-3.506-3.834-.11-.11h0l-.438-3.615-2.52.329-3.177,2.958h-.219l-6.135-.548-1.862,1.424-.11.11-.219-.11-1.862-1.534-5.368,5.258-.11.109-.219-.109-4.163-4.053-.11-.11h0L328.7,345.2l-3.4-4.6-14.022,4.82-.109.11-.11-.11-2.958-1.205-1.424.876-.109.109-.219-.109-2.191-1.315Z" transform="translate(28.21 31.753)"/><path class="a" d="M291.4,335.064l7.449.11-3.067,3.177,6.244,10.3,2.958-1.753.11-.11.11.11,2.3,1.315,1.315-.876.109-.11.11.11,3.067,1.205,14.132-4.82.219-.11.11.219,3.615,4.711v.11h0l.767,3.067,3.944,3.834,5.258-5.258.219-.11.11.11,1.972,1.534L344.2,350.4h.219l6.135.548,3.067-2.739.109-18.952h-2.41l-3.506,2.848-.219.219-.219-.219-1.424-1.972-.11-.11h0l.438-7.23-10.3-.329h-.109l-.11-.11-1.862-3.4-5.258.11h-.219l-.11-.219-.986-3.725-3.4-4.382L305.97,302.2v5.916l-.11.11-3.4,1.972.986,3.834.11.329h-.438l-4.382-.329-3.4,1.424-2.081,3.615.548,10.3v.11h-.11Z" transform="translate(27.274 28.086)"/><path class="a" d="M266.1,313.222l2.081.548.11,3.725-1.315,1.424.876,2.629L265,324.834l.548,2.41,6.135,1.424.329,3.286,2.958.11,2.3.548,2.3,2.629-3.286,2.739v2.3l3.286-1.1,2.848,1.643,2.629-.548,2.081-1.862,6.244-1.205,2.41-5.7-.438-10.407h0V321l2.081-3.725v-.11h.11l3.615-1.534h.11l4.053.329-.876-3.725-.11-.11.219-.109,3.4-2.081v-14.46l-2.41-2.52-.219-.219.11-.219,2.629-3.177-.219-1.972-4.82,3.4h-.219l-3.615-.109h-.11l-.11-.11-3.615-1.972-3.944.548h-.11l-5.149-3.725-2.41-.438-.329-.11.219-.329,1.643-2.3-2.52-2.52-4.82,4.711-.438,4.272v.219l-1.424,1.643.438,1.424,2.958,1.1h.109v.11l1.1,2.848v.219l-.657,2.629h0v.11l-.986,1.643-.11.11h-.219l-3.505-.767-2.739,2.958-.767,3.4v.11h0l-4.711,4.491Z" transform="translate(24.754 25.938)"/><path class="a" d="M362.313,276.554l-3.834-2.739L350.7,278.2l-.11.109-.219-.109-6.463-4.711-9.2-.219h-.219l-6.135-4.053-4.272-1.315-4.053,3.067-3.067,9.75-.11.219h-.219l-3.506-.438-2.739,1.753-.548,2.958-.11.11-.11.11-4.82,2.739.219,2.41v.219l-2.52,3.067,2.3,2.52h.11v8.435l18.294,8.764h.11l3.4,4.491h0v.11l.986,3.615,5.368-.11h.109l.11.11,1.862,3.505,10.407.219h.219v.329l-.438,7.34,1.315,1.643,3.286-2.848h10.188l2.52-3.067h.219l6.9-.986h.11l5.916,2.629,4.82-2.081.219-4.82v-.219h.11l4.93-3.834.657-2.3-4.382-1.315h0l-.11-.11-3.067-3.067-.11-.11v-.11l-.438-4.053v-.11l.11-.11,5.368-4.711.219-2.739-3.615-.438-.11-.11v-.11L376.335,292l-13.8-2.191h-.219v-4.163l.11-.11,1.753-2.191Z" transform="translate(28.334 24.811)"/><path class="a" d="M374.417,337.3l-1.643.767-.657,2.848,1.643,4.053v.219l-3.067,3.944.657,2.191,3.944,1.424h.219l-.109.329-1.424,4.272v.109h0l-2.629,3.286.986,3.615v.219l-.767,2.739.986,2.629.11.11-.219.11-4.053,4.053v.11h0l-2.41,1.205h-.11l-3.177,1.1-1.1,5.039,3.067,4.053,3.834-2.958.438-.329v.219l7.011-.438,1.862-4.93.11-.109h.11l2.958.219,2.081-4.382.11-.11h.11l3.725-1.424,1.1-2.52V366l.11-.11,3.506-1.862-.219-2.848-1.424-4.272h-.11v-.11l-.657-3.944-3.067-4.82-.11-.11.11-.11,1.315-2.958-2.41-1.424-3.944.438h-4.491l-.11-.219Z" transform="translate(33.977 31.438)"/><path class="a" d="M367.3,143.858l2.52,3.177,1.643-.767-.548-4.491-1.643-.876Z" transform="translate(34.521 12.686)"/><path class="a" d="M373.5,125.372l1.315,1.643,1.315-1.424-.657-2.191-1.643.438Z" transform="translate(35.113 11.015)"/><path class="a" d="M416.1,54.058l5.368.986L420.153,51.1h-3.725Z" transform="translate(39.18 4.112)"/><path class="a" d="M420.2,64.06l2.848-3.944-.657-3.4,2.848-1.862,2.848-2.958,3.177,2.958,1.862,5.039.986,2.191-2.848,1.643V66.47l-7.34,3.286-3.725-3.4Z" transform="translate(39.572 4.188)"/><path class="a" d="M417.881,67l5.587,2.191L422.7,71.82l-2.52,1.424-3.834-2.629-.548-2.41Z" transform="translate(39.152 5.63)"/><path class="a" d="M422.31,75.931l2.52-6.135,6.792-3.4,1.315,4.82,1.753-.548.219-2.081,3.177,3.067-.329,3.944-2.3,3.725,1.972,2.41-.548,3.4-2.52,1.424-5.039-3.506-4.491-3.944L422.2,77.9Z" transform="translate(39.763 5.573)"/><path class="a" d="M438.915,78.5l-.548,8L435.3,92.084l1.205,4.163,4.93-3.944,5.258-.438,2.739-2.739.438-6.463-2.958-3.725-2.52,2.52-1.315-1.424.11-3.834Z" transform="translate(41.014 6.509)"/><path class="a" d="M452.1,88.976l.438,2.191,3.944.876-.219-1.534-3.944-2.41Z" transform="translate(42.618 7.645)"/><path class="a" d="M424.9,103.743l2.081,1.424,1.424-.876-.986-2.191Z" transform="translate(40.021 8.981)"/><path class="a" d="M408.419,101.129l2.52,1.424.219-2.081L409.4,98.5,408.2,99.6Z" transform="translate(38.426 8.638)"/><path class="a" d="M422.9,108.843l.986,1.1,1.315-1.205-1.424-1.534Z" transform="translate(39.83 9.468)"/><path class="a" d="M383.2,133.481l1.972,1.753,1.315-1.315-.548-2.081L384.3,131.4Z" transform="translate(36.039 11.779)"/><path class="a" d="M387.5,135.572l1.1.876.767-1.424-1.205-1.424Z" transform="translate(36.45 11.989)"/><path class="a" d="M390.2,130.643l1.1.767.657-1.315L390.2,129Z" transform="translate(36.708 11.55)"/><path class="a" d="M392.048,127.981l1.205.986,1.205-1.753-1.972-1.315-.986.657Z" transform="translate(36.832 11.254)"/><path class="a" d="M383.9,118.748l1.424.986,2.081-1.315-1.205-1.972-1.753-.548-1.753,1.424Z" transform="translate(35.991 10.299)"/><path class="a" d="M387.948,111.9l-.548,1.315,1.1,1.534,1.205-1.315.11-1.424Z" transform="translate(36.44 9.917)"/><path class="a" d="M384.829,65.686l-.329,1.643,1.753,1.753h2.41L388.553,67l-1.643-2.3Z" transform="translate(36.163 5.411)"/><path class="a" d="M394.71,54.111l2.3.657,2.41-.657L398,50.934,396.134,49.4l-1.315,1.315-.219,1.972Z" transform="translate(37.128 3.95)"/><path class="a" d="M485.363,245.2l-1.753,1.972-.11.11h-.11l-4.163.876L475.5,249.8l.219,4.163,1.1,2.739v.219l-2.081,4.711,2.081,3.4v.219l.438,5.039v.219l-3.286,6.354v.11h-.11l-5.477,3.4,2.081,3.505.109.11-.109.11-2.3,3.177,1.205,4.053,4.6,1.534h.11v.11l.657,3.067v.11l-.11.11-3.4,3.615-.219,2.52,2.191.548h.11v.11l1.1,3.286v.11l-.11.11-2.52,2.52-1.1,3.834-.11.329-.329-.219-4.82-2.848h-.11v-.11l-2.3-4.93-4.382,1.972-.657,4.163v.11l-.11.11-9.75,10.626.438,4.93v.219l-.219.11-2.629,1.1-.219.11-.11-.219-3.725-8.107-2.52,3.4-.11.11h-.11l-9.531.109-3.944,7.34,4.492,7.011.109.11v.109l-.876,3.944v.219h-.219l-4.382.657-2.52,4.82-.876,13.036v.329h-.329l-4.272-.438-3.067,1.424v2.52l7.34,6.573,10.955,7.668,4.382-.329h.219v.219l.219.767,2.848.11,5.039-3.615.219-.109.11.219,3.177,4.382,9.64,7.668h4.82l.109.11,3.615,4.711v.219l.438,3.615,5.039.986h.219v.11l.657,2.629,4.382-1.424.876-3.067h-4.82l-.11-.11-.986-2.191-.11-.219.219-.11,2.191-1.315h0l2.958-.438,6.025-4.163,2.191-3.286h0l4.491-4.053.986-2.958h0l2.629-4.491h0l3.177-4.93,2.739-7.559h0l2.081-6.025-2.191-5.039v-.219l.548-5.477v-.219l2.848-3.4-3.4-2.848-.11-.11v-.11l-.548-3.177v-.329h.329l5.806-.767.657-3.4.11-.329.329.11,3.067,1.1,5.368-1.753,1.424-3.506.109-.219.219.11,2.739,1.424h2.848l.109.11,1.972,2.629,11.5-3.067,1.315-4.93.11-.219h.219l2.3.329L542,317.94l.438-.438.11.657.329,3.506,7.011,1.1,4.163-2.848.219-5.368-4.382-3.067-.11-.11v-.11l-.329-6.792v-.11l.11-.11,2.41-1.862h.219l6.025-.219-5.587-12.708-3.067-2.081-5.258,2.41-.219.11-.109-.329L542,283.761l-8.435-3.4-4.272.657-6.573,14.132h0l-4.382,5.149-.219.219-.219-.219-3.177-3.177-2.081,3.615-.11.11h-.11l-6.025.219-4.163,3.177-.219.11-.11-.219-3.944-4.163-.11-.11v-.11l.767-10.845h0l3.615-8.326-4.6-1.424h-.11v-.11l-2.191-4.93V273.9l1.643-6.9-3.725-2.081-.11-.11v-.11l.219-6.792-2.739-5.368-2.191,1.534-.11.11h-.11l-3.177-.219h-.219v-3.725l.11-.11,2.52-1.534-2.081-3.4ZM459.51,376.876l-.548-2.629v-.219l.219-.11,2.52-.767-1.1-3.834-.11-.219.219-.11,3.067-1.1.219-.11.11.219,2.41,4.711,5.916-3.505.219-.11.11.219,2.081,2.848h0l1.753,1.643,2.3-.876h3.286l.11.11,1.534,2.52.11.11-.11.11-6.135,7.778-.11.219-.219-.11-3.725-2.629-4.6.438h-.219l-2.739-1.643h0l-3.177-2.3-3.286-.329H459.4l.11-.329Z" transform="translate(38.932 22.644)"/><path class="b" d="M455.6,363.725l.438,2.191,3.067.219h.109l.11.11h0l3.286,2.3,2.52,1.643,4.491-.438h.219l.11.11h.109l3.506,2.52,5.806-7.449-1.315-2.3H475.1l-2.3.876-.11.11h-.219l-.11-.11-.11-.11-1.753-1.643h-.109l-1.862-2.739-5.7,3.4-.219.219-.329.11-.11-.219-.109-.329-2.3-4.491-2.52.986.986,3.615.11.219v.219l-.219.11-.219.109Z" transform="translate(42.952 33.385)"/><path class="a" d="M494.4,406.371l2.41.11,2.41,4.6,18.733,1.753,12.6-7.559,4.053-.11L535.919,401l6.135-5.7,8.545-.438,2.52,2.41,3.615-3.286,15.118,2.41,2.191-5.916,5.149-3.615L577,381.614l2.3-14.351,3.834-3.834-2.629-6.9-5.477-.548,3.834-7.121,6.792-4.711-6.135-9.2-.109-.11.109-.11,2.081-2.958-3.725-2.081-.109-.109v-.11l-.548-7.23-3.615.876h-.219l-.11-.219-2.3-4.053-4.82,2.739-.219.11-.11-.11-2.958-2.958-.109-.11.109-.219,1.753-2.41-5.915-3.944h-.109v-.11L551.036,297.7l-6.135.219-2.3,1.753.329,6.463,4.382,3.067.109.11v.11l-.219,5.587v.11l-.11.11-4.272,2.958-.11.11H542.6l-7.121-1.1-1.972,2.848,2.081,1.862h0v.109l3.506,10.517,4.163.767h.219l3.944,3.506.11.11v.11l.328,5.258v.219l-.219.11-6.244,2.191-2.41,5.477v.11h0l-7.011,5.368v3.615l3.286,2.191.11.11v.11l-.329,4.272v.219l-3.177,3.944h-.109l-4.053,1.643-1.424,2.41-.109.11h-.109l-4.711.329-7.449,9.859-.11.11h-.109l-4.053-.548-4.382,3.725-.11.11h-7.12l1.424,4.163.11.219-.11.11-3.725,2.958,3.944,4.272.219.219h-.438l-3.834,1.972-1.205,4.491Zm32.317-16.761,1.315-3.4.11-.11.109-.11h.219l7.449-.876L538,380.737l.11-.329.109-.329.219.219.219.219,1.643,1.534,1.753-4.163v-.11l.109-.11h.219l3.725-.767h.219l.109.11.109.11h0l4.491,2.848.11.11.109.11v.438h0l-.548,2.958v.438h-.438l-2.191.548,3.725,3.4h0l.329.219.329.219-.329.219-.329.219-15.556,7.449h0l-.109.11-.11.11-.11-.11-.109-.11-8.983-5.587-.219-.11-.219-.109.11-.219.219-.657Z" transform="translate(46.656 27.657)"/><path class="b" d="M525.615,379.5l-1.315,3.4,8.983,5.587,15.556-7.449h0l-4.053-3.834-.438-.329.548-.109,2.629-.657.657-2.958L543.69,370.3l-3.834.767-1.862,4.492-.219.329-.219-.219-1.972-1.753-2.191,4.492-.109.109h-.11Z" transform="translate(49.511 34.588)"/><path class="b" d="M485.88,259.207l-.11.11-.219-.11-2.958-2.3h-7.121v-.329l.438-3.944v-.11h0l4.163-5.039,1.205-3.177-2.629-1.862-.11-.11v-3.725l-2.3-2.52-.11-.11v-.11l1.1-5.039-2.739-2.081-.219-.219.219-.219,4.053-4.491-1.534-18.952-4.71-7.34,2.3-1.205,5.7-4.6.11-.11h.11l3.4.438,1.205-5.916v-.11h.109l1.643-2.52.438-3.286V180l7.121-5.587-3.067-3.615-.11-.11V165l-6.025-8.654h-.109v-.11l-.767-4.382-1.972-2.52v-.219l.219-2.41-3.834,1.862-4.272,3.286-5.806,1.753-2.3,3.944.11-5.7,11.831-12.269,6.573-11.941,3.067-10.517-9.2-10.517-8.545-.219-2.958,4.272-3.505.548,2.629-7.23-7.011-.876,2.3-3.286L457.4,96.2l-3.944,1.424-6.135,9.2,1.424,5.368-6.573.438.11,1.753L444.8,118l-4.711-1.1-2.52,2.3-5.368-.986-.767-2.41-7.668.11.11,4.491-9.312,1.205-6.244,5.039-4.93.11-3.505,3.177-1.643,6.463,3.067,5.368-4.6,1.205-12.16-1.972-7.011-.219-2.081,3.944-.329,9.969,4.382,4.272,2.191,5.039h-6.135l-5.258-9.859-3.944.219.11.438,3.286,7.23.219.329h-.329l-3.725.657-.767,4.382,3.4,7.121v.219l-.876,3.4v.11l-.11.11-8,3.506-.986,4.053,5.149,6.792,5.916,1.534h.11l.11.11,1.205,7.34-.329.986h0l-2.081,5.258v.11h-.219l-5.368,1.534,1.643,3.834.11.11-.11.11-1.643,5.039,4.272,5.587h0v.11l-1.1,10.188,3.506,4.711v.219l-1.315,7.23,5.149,3.834h.11v.11l.876,5.258v.11l-.11.11-4.491,6.244-.438,5.587h0v.11l-7.011,8.873v6.9l5.7,3.286.219.11-.11.219-.986,2.629-.11.11h-.11l-5.039,2.191-.11.11h0l-4.382.548,1.862,6.573.11.219-.11.11-1.862,2.3v3.506l13.693,2.081h.11l.109.219,3.944,8.216,3.725.438h.219v.329l-.219,3.067v.11l-.109.11-5.368,4.711.438,3.834,2.958,2.958,4.491,1.424.329.11-.11.219-.767,2.629v.219l-4.93,3.725-.329,4.93v.11h0l-.657,3.177L379.4,356.7l.11.11-.11.219-2.191,2.081v.11h-.11l-1.862.876,2.191,6.244h4.163l4.053-.438h.109l2.629,1.753.219.11-.11.219-1.315,2.958,2.958,4.6.11.11h0l.657,4.053,1.424,4.382h0l.329,3.177v.11l-.219.11-3.4,1.862V392.2l-1.2,2.629-.11.11h-.11l-3.725,1.424-1.972,4.272,6.025,4.163,9.859,1.315,4.272-3.615h.11l2.3-.548.109-2.3v-.11l.11-.11,3.505-2.191-.219-2.52V394.5h.219l2.629-.767.767-3.505.11-.11.11-.11,13.146-1.1.657-3.067-7.34-6.463-.11-.11v-3.177h.219l3.286-1.534h.11l4.053.329.876-12.708v-.11h0l2.629-5.039.11-.11h.109l4.382-.657.767-3.615-4.492-7.121-.109-.11.109-.11,4.163-7.668v-.109h.219l10.078-.438,2.739-3.615.329-.329.109.438,3.834,8.216,2.191-.876-.438-4.82V336l.11-.11,9.75-10.626.657-4.272-.11-.11,5.258-2.41.11.219,2.41,5.149,4.382,2.629.986-3.506v-.11l.11-.11,2.41-2.41-.986-2.958-2.191-.657-.219-.11v-.219l.219-2.739v-.11l.11-.11,3.286-3.615-.548-2.739-4.6-1.424-.219-.11v-.11l-1.315-4.382v-.11l.11-.11,2.191-3.067-2.081-3.615-.11-.219.219-.11,5.587-3.506,3.177-6.135-.329-4.82-2.191-3.506-.11-.11.11-.11,2.081-4.711-.986-2.739h0l-.219-4.382v-.219h.11l3.944-1.753h0v-.11l4.053-.767,1.753-1.972-1.424-1.862Z" transform="translate(33.595 8.418)"/><path class="b" d="M789.031,253.465l-1.1-14.241-1.643-6.573-4.71-4.82.438-6.9,2.41-2.081-8.107-9.421.11-6.573,3.4-3.725-.767-3.725-6.9-1.972-7.011-12.488,1.753-1.1,2.082,2.958,3.505-2.081-5.368-5.039-2.848,1.534-4.6-2.958v.11l-2.41-5.587h-4.711L752,172.071l-3.067-.219-9.64-19.5.548-6.135,3.834-.876-2.848-11.393,6.135,4.82.219-13.693,4.82-5.039,7.23-.11-4.053-10.188-1.972-21.8-4.82,1.424h-.11L744.773,87.5l-6.135,17.418v.219l-.219-.11-7.778-.11-7.121,2.191H723.3l-.109-.219-2.3-6.354-9.64.548-1.753,3.067v.11h-.109l-6.683,1.534-1.1,3.506-.11.11h-.109l-3.615.438-1.2,4.053v.11h-.11l-4.163,1.315.767,4.163,5.916,8.654,3.724.767h.11l.109.219,2.52,6.573,4.272-.329h.11L712.676,138l.109.11h0l.767,4.163,3.834,2.191,2.739-2.52-7.34-8.764,1.753-5.7,7.011-2.41-3.725,5.587.876,4.272,5.587,3.834,2.52.219-.109,3.944,2.41.548-2.3,11.5,2.629,4.272.767,13.255,2.081,8.654,2.739,8.545-3.177,3.4.986,3.286-1.753,2.3,4.491,5.149.657,8.216,6.135,6.792h0l7.23,8.216Z" transform="translate(65.551 7.587)"/><path class="b" d="M243.145,221.418h-.11l-.11-.11-8.107-6.682-2.958,1.643h-.11l-8-.876v-.11l-5.368-2.739h-.11l-4.93-5.587-6.354-.657-1.862,4.711,4.491,5.916.11.11v.11l.219,4.272v.11l-.11.11-7.449,3.067v2.52l1.972,1.753.219.219-2.3,3.067h0l-2.081,2.3-2.739,7.011v.11h0l-2.3,2.52-1.534,3.834h0v.11l-2.52,2.739L191,251h-.11l-2.191-.219v5.258h2.629V260.2l5.258.219h.219v.219l.329,3.067,2.191.548h.11l.11.11.329,1.534h0l.329,2.081.767,1.1,1.972-.548,4.382-5.149.11-.11h.11l5.039-.548,3.177-5.039.11-.329.219.329,2.3,2.52,2.081-1.315.767-3.506v-.219h.219l5.587-.329,1.534-1.862.329-3.834v-.11h.11l2.41-2.848-1.753-3.506h-.11v-.11l.219-2.848v-.219h.11l5.916-2.739,6.792-6.682,4.6-6.025.876-1.972Z" transform="translate(17.469 18.93)"/><path class="b" d="M20.657,255.978l3.067-3.615-6.9-9.092,4.053-11.612-2.958-2.41L15.4,231,5.32,224.1l-1.315,1.972.329,8.216L.5,238.451l1.1,5.587,6.682-.329,7.34,9.312Z" transform="translate(-0.5 20.63)"/></g></svg>