<svg xmlns="http://www.w3.org/2000/svg" viewBox="0 0 16 16"><defs><style>.a{fill:#4195ea;}.b{fill:#fff;}</style></defs><path class="a" d="M15.116,16A.884.884,0,0,0,16,15.116V.884A.884.884,0,0,0,15.116,0H.884A.884.884,0,0,0,0,.884V15.116A.884.884,0,0,0,.884,16Z"/><path class="b" d="M157.981,70.983v-6.2h2.08l.312-2.417h-2.392V60.827c0-.7.194-1.175,1.2-1.175h1.28V57.5a16.992,16.992,0,0,0-1.865-.1,2.91,2.91,0,0,0-3.107,3.192v1.781H153.4v2.417h2.088v6.194Z" transform="translate(-146.941 -54.983)"/></svg>