<svg xmlns="http://www.w3.org/2000/svg" viewBox="0 0 16 15.934"><defs><style>.a{fill:#4195ea;}</style></defs><circle class="a" cx="3.213" cy="3.213" r="3.213" transform="translate(4.721 4.721)"/><path class="a" d="M11.934,0H3.869a3.918,3.918,0,0,0-2.82,1.049A3.918,3.918,0,0,0,0,3.869v8.066a4.113,4.113,0,0,0,1.115,2.951A4.2,4.2,0,0,0,4,15.934h8a4.083,4.083,0,0,0,2.885-1.049A3.851,3.851,0,0,0,16,12V3.934a4.321,4.321,0,0,0-1.049-2.885A4.548,4.548,0,0,0,11.934,0Zm-4,12.918A5.024,5.024,0,0,1,2.951,7.934,5.024,5.024,0,0,1,7.934,2.951a5.081,5.081,0,0,1,5.049,4.984A5.038,5.038,0,0,1,7.934,12.918Zm5.18-9.049a1.18,1.18,0,1,1,1.18-1.18A1.175,1.175,0,0,1,13.115,3.869Z"/></svg>