<svg xmlns="http://www.w3.org/2000/svg" viewBox="0 0 24 14"><defs><style>.a{fill:#4195ea;}</style></defs><path class="a" d="M1230.937,2951.864s3.162-4.444,3.476-5.9c.1-.521-.126-.814-.67-.814H1231a1,1,0,0,0-1.047.668,24.75,24.75,0,0,1-3.288,5.133c-.579.642-.874.834-1.194.834-.258,0-.377-.214-.377-.793v-5.07c0-.709-.084-.918-.67-.918h-4.4a.48.48,0,0,0-.545.459c0,.668,1.026.819,1.026,2.629v3.735c0,.751-.042,1.043-.4,1.043-.942,0-3.183-3.234-4.44-6.906-.251-.751-.524-.96-1.236-.96h-2.744a.653.653,0,0,0-.691.667c0,.73.859,4.111,4.23,8.638,2.262,3.046,5.236,4.694,7.916,4.694,1.634,0,2.032-.271,2.032-.96V2955.7c0-.584.23-.835.565-.835.377,0,1.042.121,2.6,1.648,1.843,1.753,1.969,2.483,2.974,2.483h3.079c.314,0,.607-.146.607-.667,0-.689-.9-1.92-2.283-3.38-.565-.751-1.487-1.565-1.78-1.94C1230.518,2952.573,1230.644,2952.323,1230.937,2951.864Z" transform="translate(-1211 -2945)"/></svg>