<svg xmlns="http://www.w3.org/2000/svg" viewBox="0 0 22.83 19.307"><defs><style>.a{fill:#fff;}</style></defs><path class="a" d="M22.79,4.677,20.4,13.933a1.072,1.072,0,0,1-1,.8H8.161a.969.969,0,0,1-1-.8L4.18,1.99H1A.94.94,0,0,1,0,1,.94.94,0,0,1,1,0H4.976a.969.969,0,0,1,1,.8L8.957,12.738h9.753L20.6,5.474H6.637a.94.94,0,0,1-1-1,.94.94,0,0,1,1-1H21.894a.905.905,0,0,1,.8.4A1.057,1.057,0,0,1,22.79,4.677ZM10.151,16.122a1.592,1.592,0,1,0,1.592,1.592A1.572,1.572,0,0,0,10.151,16.122Zm7.364-.3a1.592,1.592,0,1,0,1.592,1.592A1.637,1.637,0,0,0,17.515,15.823Z" transform="translate(0)"/></svg>