<svg xmlns="http://www.w3.org/2000/svg" viewBox="0 0 15.538 15.638"><defs><style>.a{fill:#4195ea;}</style></defs><path class="a" d="M11.8,15.6a3.631,3.631,0,0,1-2.6-1.1L5.4,10.7,3.9,12a1.163,1.163,0,0,1-1,.2,1.208,1.208,0,0,1-.7-.7L0,1.2A.806.806,0,0,1,.3.3.855.855,0,0,1,1.2,0L11.8,2.7a.988.988,0,0,1,.7.7,1.015,1.015,0,0,1-.3,1L10.7,6l3.7,3.2a3.741,3.741,0,0,1,0,5.3A3.631,3.631,0,0,1,11.8,15.6ZM5.4,8.3h0a1.136,1.136,0,0,1,.8.3l.1.1L10.6,13A1.825,1.825,0,0,0,13,13a1.845,1.845,0,0,0,.5-1.2,2.078,2.078,0,0,0-.5-1.2L8.6,6.9l-.1-.1a1.08,1.08,0,0,1-.3-.7,1.136,1.136,0,0,1,.3-.8L9.7,4.2,2.3,2.4l1.5,7,.9-.8A1.08,1.08,0,0,1,5.4,8.3Z" transform="translate(0.038 0.038)"/></svg>