<svg xmlns="http://www.w3.org/2000/svg" viewBox="0 0 21 12"><defs><style>.a{fill:#fff;}.b,.c{stroke:none;}.c{fill:#4195ea;}</style></defs><g class="a" transform="translate(7227 613)"><path class="b" d="M -7214.50048828125 -601.5003051757813 L -7221.4990234375 -601.5003051757813 L -7221.4990234375 -602.5008544921875 L -7214.50048828125 -602.5008544921875 L -7214.50048828125 -601.5003051757813 Z M -7224.50146484375 -601.5003051757813 L -7226.49951171875 -601.5003051757813 L -7226.49951171875 -602.5008544921875 L -7224.50146484375 -602.5008544921875 L -7224.50146484375 -601.5003051757813 Z M -7214.50048828125 -606.5007934570313 L -7221.4990234375 -606.5007934570313 L -7221.4990234375 -607.49951171875 L -7214.50048828125 -607.49951171875 L -7214.50048828125 -606.5007934570313 Z M -7224.50146484375 -606.5007934570313 L -7226.49951171875 -606.5007934570313 L -7226.49951171875 -607.49951171875 L -7224.50146484375 -607.49951171875 L -7224.50146484375 -606.5007934570313 Z M -7208.4990234375 -607.5001220703125 L -7209.49951171875 -607.5001220703125 L -7209.49951171875 -609.000732421875 L -7209.49951171875 -609.500732421875 L -7209.99951171875 -609.500732421875 L -7211.5 -609.500732421875 L -7211.5 -610.4994506835938 L -7209.99951171875 -610.4994506835938 L -7209.49951171875 -610.4994506835938 L -7209.49951171875 -610.9994506835938 L -7209.49951171875 -612.5 L -7208.4990234375 -612.5 L -7208.4990234375 -610.9994506835938 L -7208.4990234375 -610.4994506835938 L -7207.9990234375 -610.4994506835938 L -7206.5 -610.4994506835938 L -7206.5 -609.500732421875 L -7207.9990234375 -609.500732421875 L -7208.4990234375 -609.500732421875 L -7208.4990234375 -609.000732421875 L -7208.4990234375 -607.5001220703125 Z M -7214.50048828125 -611.4994506835938 L -7221.4990234375 -611.4994506835938 L -7221.4990234375 -612.5 L -7214.50048828125 -612.5 L -7214.50048828125 -611.4994506835938 Z M -7224.50146484375 -611.4994506835938 L -7226.49951171875 -611.4994506835938 L -7226.49951171875 -612.5 L -7224.50146484375 -612.5 L -7224.50146484375 -611.4994506835938 Z"/><path class="c" d="M -7215.00048828125 -602.0003051757813 L -7215.00048828125 -602.0008544921875 L -7220.9990234375 -602.0008544921875 L -7220.9990234375 -602.0003051757813 L -7215.00048828125 -602.0003051757813 M -7225.00146484375 -602.0003051757813 L -7225.00146484375 -602.0008544921875 L -7225.99951171875 -602.0008544921875 L -7225.99951171875 -602.0003051757813 L -7225.00146484375 -602.0003051757813 M -7208.9990234375 -608.0001220703125 L -7208.9990234375 -609.000732421875 L -7208.9990234375 -609.9994506835938 L -7208.9990234375 -610.9994506835938 L -7208.9990234375 -612 L -7208.99951171875 -612 L -7208.99951171875 -610.9994506835938 L -7208.99951171875 -609.9994506835938 L -7208.99951171875 -609.000732421875 L -7208.99951171875 -608.0001220703125 L -7208.9990234375 -608.0001220703125 M -7215.00048828125 -611.9994506835938 L -7215.00048828125 -612 L -7220.9990234375 -612 L -7220.9990234375 -611.9994506835938 L -7215.00048828125 -611.9994506835938 M -7225.00146484375 -611.9994506835938 L -7225.00146484375 -612 L -7225.99951171875 -612 L -7225.99951171875 -611.9994506835938 L -7225.00146484375 -611.9994506835938 M -7214.00048828125 -601.0003051757813 L -7221.9990234375 -601.0003051757813 L -7221.9990234375 -603.0008544921875 L -7214.00048828125 -603.0008544921875 L -7214.00048828125 -601.0003051757813 Z M -7224.00146484375 -601.0003051757813 L -7226.99951171875 -601.0003051757813 L -7226.99951171875 -603.0008544921875 L -7224.00146484375 -603.0008544921875 L -7224.00146484375 -601.0003051757813 Z M -7214.00048828125 -606.0007934570313 L -7221.9990234375 -606.0007934570313 L -7221.9990234375 -607.99951171875 L -7214.00048828125 -607.99951171875 L -7214.00048828125 -606.0007934570313 Z M -7224.00146484375 -606.0007934570313 L -7226.99951171875 -606.0007934570313 L -7226.99951171875 -607.99951171875 L -7224.00146484375 -607.99951171875 L -7224.00146484375 -606.0007934570313 Z M -7207.9990234375 -607.0001220703125 L -7209.99951171875 -607.0001220703125 L -7209.99951171875 -609.000732421875 L -7212 -609.000732421875 L -7212 -610.9994506835938 L -7209.99951171875 -610.9994506835938 L -7209.99951171875 -613 L -7207.9990234375 -613 L -7207.9990234375 -610.9994506835938 L -7206 -610.9994506835938 L -7206 -609.000732421875 L -7207.9990234375 -609.000732421875 L -7207.9990234375 -607.0001220703125 Z M -7214.00048828125 -610.9994506835938 L -7221.9990234375 -610.9994506835938 L -7221.9990234375 -613 L -7214.00048828125 -613 L -7214.00048828125 -610.9994506835938 Z M -7224.00146484375 -610.9994506835938 L -7226.99951171875 -610.9994506835938 L -7226.99951171875 -613 L -7224.00146484375 -613 L -7224.00146484375 -610.9994506835938 Z"/></g></svg>