
<svg xmlns="http://www.w3.org/2000/svg" viewBox="0 0 17 15"><defs><style>.a{fill:#fff;}</style></defs><path class="a" d="M8.5,15a1.08,1.08,0,0,1-.7-.3l-6.3-6-.1-.1h0A5.239,5.239,0,0,1,0,5,5.021,5.021,0,0,1,8.5,1.4,5.179,5.179,0,0,1,12,0a5.015,5.015,0,0,1,5,5,5.179,5.179,0,0,1-1.4,3.5l-.1.1L9.1,14.7A.6.6,0,0,1,8.5,15ZM2.9,7.2h0l5.6,5.4,5.6-5.4h0A2.878,2.878,0,0,0,15,5.1a3.009,3.009,0,0,0-3-3A2.915,2.915,0,0,0,9.4,3.5a.951.951,0,0,1-1.7,0A3.282,3.282,0,0,0,5,2,3.076,3.076,0,0,0,2,5a3.1,3.1,0,0,0,.9,2.2Z"/></svg>