<svg xmlns="http://www.w3.org/2000/svg" xmlns:xlink="http://www.w3.org/1999/xlink" viewBox="0 0 55.855 63.75"><defs><style>.a{fill:#fff;}.b{fill:#4195ea;}.b,.c,.d{fill-rule:evenodd;}.c{fill:#ff2429;}.d{fill:#ffc400;}.e{filter:url(#a);}</style><filter id="a" x="0" y="0" width="55.855" height="63.75" filterUnits="userSpaceOnUse"><feOffset dx="4" dy="3" input="SourceAlpha"/><feGaussianBlur stdDeviation="3" result="b"/><feFlood flood-opacity="0.161"/><feComposite operator="in" in2="b"/><feComposite in="SourceGraphic"/></filter></defs><g transform="translate(-173.723 -7.793)"><g class="e" transform="matrix(1, 0, 0, 1, 173.72, 7.79)"><path class="a" d="M18.925,0C29.377,0,38.086,6.885,37.851,18.926S21.6,45.75,18.925,45.75,0,31.08,0,18.926,8.473,0,18.925,0Z" transform="translate(5 6)"/></g><g transform="translate(185.723 20.043)"><path class="b" d="M949.3,34.743a1.4,1.4,0,0,1,.039,2.676.981.981,0,1,1-1.163-.145,1.395,1.395,0,0,1-.2-2.22,1.967,1.967,0,0,1-1.42-3.011,2.716,2.716,0,1,1,1.138-.842,1.97,1.97,0,0,1,1.61,3.543Zm-2.424,4.8a.349.349,0,0,1,.229.087.594.594,0,1,1,.1.155.352.352,0,1,1-.333-.242Z" transform="translate(-933.41 -26.797)"/><path class="c" d="M968.487,96.789a2.711,2.711,0,0,1-4.879-.194,1.97,1.97,0,0,1-3.883-.247,1.394,1.394,0,0,1-2.372-1.229.98.98,0,1,1,.669-.955,1.39,1.39,0,0,1,2.052.869,1.967,1.967,0,0,1,3.327.161,2.713,2.713,0,1,1,5.086,1.6Zm-12.358-3.576a.586.586,0,0,1,.129-1.085.347.347,0,0,1-.106-.035.356.356,0,1,1,.292.017.587.587,0,1,1-.315,1.1Z" transform="translate(-943.634 -77.725)"/><path class="d" d="M910.675,79.777a.349.349,0,0,1-.423-.481.582.582,0,0,1-.219.127.593.593,0,1,1,.33-.263.345.345,0,0,1,.1-.056.353.353,0,0,1,.209.673Zm-2.042-.575a.975.975,0,0,1-.958-.225,1.392,1.392,0,0,1-2.058.854,1.967,1.967,0,0,1-2.454,2.249,2.716,2.716,0,1,1-1.141-.837,1.969,1.969,0,0,1,2.91-2.583,1.395,1.395,0,0,1,2.538-.835.978.978,0,1,1,1.163,1.377Z" transform="translate(-898.325 -66.54)"/></g></g></svg>