<svg xmlns="http://www.w3.org/2000/svg" viewBox="0 0 18.15 16.793"><defs><style>.a{fill:#4195ea;}</style></defs><g transform="translate(0)"><path class="a" d="M18.562,0H9.148A.8.8,0,0,0,8.3.848V3.732a.8.8,0,0,0,.848.848A.8.8,0,0,0,10,3.732V1.7h7.718V15.1H10.166V13.4a.8.8,0,0,0-.848-.848.8.8,0,0,0-.848.848v2.544a.8.8,0,0,0,.848.848h9.245a.8.8,0,0,0,.848-.848V.848A.8.8,0,0,0,18.562,0Z" transform="translate(-1.261 0)"/><path class="a" d="M8.736,11.234a.824.824,0,0,0,.085,1.187.716.716,0,0,0,.594.17.963.963,0,0,0,.679-.254l2.12-2.375a.89.89,0,0,0,0-1.1l-2.12-2.205a.82.82,0,0,0-1.187,0,.684.684,0,0,0-.17,1.1l.679.763H.848A.8.8,0,0,0,0,9.368a.8.8,0,0,0,.848.848H9.584Z" transform="translate(0 -0.972)"/></g></svg>