<svg xmlns="http://www.w3.org/2000/svg" viewBox="0 0 15.178 16"><defs><style>.a{fill:#4195ea;}</style></defs><path class="a" d="M15,14.776,11.451,10.23a5.577,5.577,0,0,0,2.073-4.284C13.524,2.623,10.464,0,6.811,0S0,2.71,0,5.945s3.06,5.945,6.713,5.945a7.87,7.87,0,0,0,3.159-.7l3.554,4.459a.941.941,0,0,0,.79.35,1.53,1.53,0,0,0,.592-.175C15.2,15.738,15.3,15.126,15,14.776ZM1.974,5.945c0-2.273,2.172-4.2,4.738-4.2s4.738,1.923,4.738,4.2-2.172,4.2-4.738,4.2A4.5,4.5,0,0,1,1.974,5.945Z" transform="translate(0.001)"/></svg>