<?xml version="1.0" encoding="utf-8"?>
<!-- Generator: Adobe Illustrator 22.1.0, SVG Export Plug-In . SVG Version: 6.00 Build 0)  -->
<svg version="1.1" xmlns="http://www.w3.org/2000/svg" xmlns:xlink="http://www.w3.org/1999/xlink" x="0px" y="0px" viewBox="0 0 55.2 34" style="enable-background:new 0 0 55.2 34;" xml:space="preserve">
<style type="text/css">
	.st1{fill:none;stroke:#070707;stroke-width:1.5;stroke-linejoin:round;stroke-miterlimit:10;}
	.st2{opacity:0.6;fill:#000002;}
</style>
<g>
	<polygon class="st1" points="53.4,0.8 50.4,2.2 30.7,2.2 24.5,2.2 4.8,2.2 1.9,0.8 0.8,2.2 0.8,30.4 3,33.3 24.5,33.3 30.7,33.3 52.2,33.3 54.5,30.4 54.5,2.2"/>
	<path class="st1" d="M5.3,2.7c0,0,0,13.8,0,15.1s0.8,2.4,2.3,2.4s19.9,0,19.9,0s18.9,0,20.3,0c1.5,0,2.2-1.3,2.2-2.7 c0-1.3,0-14.8,0-14.8"/>
	<line class="st1" x1="27.4" y1="20.2" x2="27.4" y2="2.2"/>
	<path class="st2" d="M5.3,2.2c0,0,0,15.1,0,16.4s0.9,1.6,4.4,1.6s37.3,0,38.8,0S50,19,50,15.8s0-13.4,0-13.4L5.3,2.2z"/>
	<polyline class="st1" points="9.7,20.7 10.7,26.8 44.1,26.8 45.5,20.6"/>
</g>
</svg>
